<?xml version="1.0" encoding="UTF-8"?>
<!--Generator: Apple Native CoreSVG 123-->
<!DOCTYPE svg
PUBLIC "-//W3C//DTD SVG 1.1//EN"
       "http://www.w3.org/Graphics/SVG/1.1/DTD/svg11.dtd">
<svg version="1.1" xmlns="http://www.w3.org/2000/svg" xmlns:xlink="http://www.w3.org/1999/xlink" width="3300" height="2200">
 <!--glyph: "uni1006FA.medium", point size: 100.000000, font version: "Version 15.0d7e11", template writer version: "5"-->
 <g id="Notes">
  <rect height="2200" id="artboard" style="fill:white;opacity:1" width="3300" x="0" y="0"/>
  <line id="" style="fill:none;stroke:black;opacity:1;stroke-width:0.5;" x1="263" x2="3036" y1="292" y2="292"/>
  <text style="stroke:none;fill:black;font-family:-apple-system,&quot;SF Pro Display&quot;,&quot;SF Pro Text&quot;,Helvetica,sans-serif;font-weight:bold;" transform="matrix(1 0 0 1 263 322)">Weight/Scale Variations</text>
  <text style="stroke:none;fill:black;font-family:-apple-system,&quot;SF Pro Display&quot;,&quot;SF Pro Text&quot;,Helvetica,sans-serif;text-anchor:middle;" transform="matrix(1 0 0 1 559.711 322)">Ultralight</text>
  <text style="stroke:none;fill:black;font-family:-apple-system,&quot;SF Pro Display&quot;,&quot;SF Pro Text&quot;,Helvetica,sans-serif;text-anchor:middle;" transform="matrix(1 0 0 1 856.422 322)">Thin</text>
  <text style="stroke:none;fill:black;font-family:-apple-system,&quot;SF Pro Display&quot;,&quot;SF Pro Text&quot;,Helvetica,sans-serif;text-anchor:middle;" transform="matrix(1 0 0 1 1153.13 322)">Light</text>
  <text style="stroke:none;fill:black;font-family:-apple-system,&quot;SF Pro Display&quot;,&quot;SF Pro Text&quot;,Helvetica,sans-serif;text-anchor:middle;" transform="matrix(1 0 0 1 1449.84 322)">Regular</text>
  <text style="stroke:none;fill:black;font-family:-apple-system,&quot;SF Pro Display&quot;,&quot;SF Pro Text&quot;,Helvetica,sans-serif;text-anchor:middle;" transform="matrix(1 0 0 1 1746.56 322)">Medium</text>
  <text style="stroke:none;fill:black;font-family:-apple-system,&quot;SF Pro Display&quot;,&quot;SF Pro Text&quot;,Helvetica,sans-serif;text-anchor:middle;" transform="matrix(1 0 0 1 2043.27 322)">Semibold</text>
  <text style="stroke:none;fill:black;font-family:-apple-system,&quot;SF Pro Display&quot;,&quot;SF Pro Text&quot;,Helvetica,sans-serif;text-anchor:middle;" transform="matrix(1 0 0 1 2339.98 322)">Bold</text>
  <text style="stroke:none;fill:black;font-family:-apple-system,&quot;SF Pro Display&quot;,&quot;SF Pro Text&quot;,Helvetica,sans-serif;text-anchor:middle;" transform="matrix(1 0 0 1 2636.69 322)">Heavy</text>
  <text style="stroke:none;fill:black;font-family:-apple-system,&quot;SF Pro Display&quot;,&quot;SF Pro Text&quot;,Helvetica,sans-serif;text-anchor:middle;" transform="matrix(1 0 0 1 2933.4 322)">Black</text>
  <line id="" style="fill:none;stroke:black;opacity:1;stroke-width:0.5;" x1="263" x2="3036" y1="1903" y2="1903"/>
  <g id="" transform="matrix(1 0 0 1 263 1933)">
   <path d="M 9.24805 0.830078 C 13.5547 0.830078 17.1387 -2.74414 17.1387 -7.05078 C 17.1387 -11.3574 13.5449 -14.9316 9.23828 -14.9316 C 4.94141 -14.9316 1.36719 -11.3574 1.36719 -7.05078 C 1.36719 -2.74414 4.95117 0.830078 9.24805 0.830078 Z M 9.24805 -0.654297 C 5.70312 -0.654297 2.87109 -3.49609 2.87109 -7.05078 C 2.87109 -10.6055 5.69336 -13.4473 9.23828 -13.4473 C 12.793 -13.4473 15.6348 -10.6055 15.6445 -7.05078 C 15.6543 -3.49609 12.8027 -0.654297 9.24805 -0.654297 Z M 9.22852 -3.42773 C 9.69727 -3.42773 9.9707 -3.74023 9.9707 -4.25781 L 9.9707 -6.31836 L 12.1973 -6.31836 C 12.6953 -6.31836 13.0371 -6.57227 13.0371 -7.04102 C 13.0371 -7.51953 12.7148 -7.7832 12.1973 -7.7832 L 9.9707 -7.7832 L 9.9707 -10.0098 C 9.9707 -10.5273 9.69727 -10.8496 9.22852 -10.8496 C 8.75977 -10.8496 8.50586 -10.5078 8.50586 -10.0098 L 8.50586 -7.7832 L 6.29883 -7.7832 C 5.78125 -7.7832 5.44922 -7.51953 5.44922 -7.04102 C 5.44922 -6.57227 5.80078 -6.31836 6.29883 -6.31836 L 8.50586 -6.31836 L 8.50586 -4.25781 C 8.50586 -3.75977 8.75977 -3.42773 9.22852 -3.42773 Z"/>
  </g>
  <g id="" transform="matrix(1 0 0 1 281.506 1933)">
   <path d="M 11.709 2.91016 C 17.1582 2.91016 21.6699 -1.60156 21.6699 -7.05078 C 21.6699 -12.4902 17.1484 -17.0117 11.6992 -17.0117 C 6.25977 -17.0117 1.74805 -12.4902 1.74805 -7.05078 C 1.74805 -1.60156 6.26953 2.91016 11.709 2.91016 Z M 11.709 1.25 C 7.09961 1.25 3.41797 -2.44141 3.41797 -7.05078 C 3.41797 -11.6504 7.08984 -15.3516 11.6992 -15.3516 C 16.3086 -15.3516 20 -11.6504 20.0098 -7.05078 C 20.0195 -2.44141 16.3184 1.25 11.709 1.25 Z M 11.6895 -2.41211 C 12.207 -2.41211 12.5195 -2.77344 12.5195 -3.33984 L 12.5195 -6.23047 L 15.5762 -6.23047 C 16.123 -6.23047 16.5039 -6.51367 16.5039 -7.03125 C 16.5039 -7.55859 16.1426 -7.86133 15.5762 -7.86133 L 12.5195 -7.86133 L 12.5195 -10.9277 C 12.5195 -11.5039 12.207 -11.8555 11.6895 -11.8555 C 11.1719 -11.8555 10.8789 -11.4844 10.8789 -10.9277 L 10.8789 -7.86133 L 7.83203 -7.86133 C 7.26562 -7.86133 6.89453 -7.55859 6.89453 -7.03125 C 6.89453 -6.51367 7.28516 -6.23047 7.83203 -6.23047 L 10.8789 -6.23047 L 10.8789 -3.33984 C 10.8789 -2.79297 11.1719 -2.41211 11.6895 -2.41211 Z"/>
  </g>
  <g id="" transform="matrix(1 0 0 1 304.924 1933)">
   <path d="M 14.9707 5.67383 C 21.9336 5.67383 27.6953 -0.078125 27.6953 -7.04102 C 27.6953 -14.0039 21.9238 -19.7559 14.9609 -19.7559 C 8.00781 -19.7559 2.25586 -14.0039 2.25586 -7.04102 C 2.25586 -0.078125 8.01758 5.67383 14.9707 5.67383 Z M 14.9707 3.85742 C 8.93555 3.85742 4.08203 -1.00586 4.08203 -7.04102 C 4.08203 -13.0762 8.92578 -17.9395 14.9609 -17.9395 C 21.0059 -17.9395 25.8594 -13.0762 25.8691 -7.04102 C 25.8789 -1.00586 21.0156 3.85742 14.9707 3.85742 Z M 14.9512 -1.06445 C 15.5176 -1.06445 15.8691 -1.45508 15.8691 -2.06055 L 15.8691 -6.13281 L 20.1074 -6.13281 C 20.6934 -6.13281 21.1133 -6.46484 21.1133 -7.02148 C 21.1133 -7.59766 20.7227 -7.93945 20.1074 -7.93945 L 15.8691 -7.93945 L 15.8691 -12.1875 C 15.8691 -12.8027 15.5176 -13.1934 14.9512 -13.1934 C 14.3848 -13.1934 14.0625 -12.7832 14.0625 -12.1875 L 14.0625 -7.93945 L 9.83398 -7.93945 C 9.21875 -7.93945 8.80859 -7.59766 8.80859 -7.02148 C 8.80859 -6.46484 9.23828 -6.13281 9.83398 -6.13281 L 14.0625 -6.13281 L 14.0625 -2.06055 C 14.0625 -1.47461 14.3848 -1.06445 14.9512 -1.06445 Z"/>
  </g>
  <text style="stroke:none;fill:black;font-family:-apple-system,&quot;SF Pro Display&quot;,&quot;SF Pro Text&quot;,Helvetica,sans-serif;font-weight:bold;" transform="matrix(1 0 0 1 263 1953)">Design Variations</text>
  <text style="stroke:none;fill:black;font-family:-apple-system,&quot;SF Pro Display&quot;,&quot;SF Pro Text&quot;,Helvetica,sans-serif;" transform="matrix(1 0 0 1 263 1971)">Symbols are supported in up to nine weights and three scales.</text>
  <text style="stroke:none;fill:black;font-family:-apple-system,&quot;SF Pro Display&quot;,&quot;SF Pro Text&quot;,Helvetica,sans-serif;" transform="matrix(1 0 0 1 263 1989)">For optimal layout with text and other symbols, vertically align</text>
  <text style="stroke:none;fill:black;font-family:-apple-system,&quot;SF Pro Display&quot;,&quot;SF Pro Text&quot;,Helvetica,sans-serif;" transform="matrix(1 0 0 1 263 2007)">symbols with the adjacent text.</text>
  <rect height="14" id="" style="fill:#00AEEF;stroke:none;opacity:0.4;" width="3" x="776" y="1919"/>
  <g id="" transform="matrix(1 0 0 1 779 1933)">
   <path d="M 10.5273 0 L 12.373 0 L 7.17773 -14.0918 L 5.43945 -14.0918 L 0.244141 0 L 2.08984 0 L 3.50586 -4.0332 L 9.11133 -4.0332 Z M 6.2793 -11.9531 L 6.33789 -11.9531 L 8.59375 -5.52734 L 4.02344 -5.52734 Z"/>
  </g>
  <rect height="14" id="" style="fill:#00AEEF;stroke:none;opacity:0.4;" width="3" x="791.617" y="1919"/>
  <text style="stroke:none;fill:black;font-family:-apple-system,&quot;SF Pro Display&quot;,&quot;SF Pro Text&quot;,Helvetica,sans-serif;font-weight:bold;" transform="matrix(1 0 0 1 776 1953)">Margins</text>
  <text style="stroke:none;fill:black;font-family:-apple-system,&quot;SF Pro Display&quot;,&quot;SF Pro Text&quot;,Helvetica,sans-serif;" transform="matrix(1 0 0 1 776 1971)">Leading and trailing margins on the left and right side of each symbol</text>
  <text style="stroke:none;fill:black;font-family:-apple-system,&quot;SF Pro Display&quot;,&quot;SF Pro Text&quot;,Helvetica,sans-serif;" transform="matrix(1 0 0 1 776 1989)">can be adjusted by modifying the width of the blue rectangles.</text>
  <text style="stroke:none;fill:black;font-family:-apple-system,&quot;SF Pro Display&quot;,&quot;SF Pro Text&quot;,Helvetica,sans-serif;" transform="matrix(1 0 0 1 776 2007)">Modifications are automatically applied proportionally to all</text>
  <text style="stroke:none;fill:black;font-family:-apple-system,&quot;SF Pro Display&quot;,&quot;SF Pro Text&quot;,Helvetica,sans-serif;" transform="matrix(1 0 0 1 776 2025)">scales and weights.</text>
  <g id="" transform="matrix(1 0 0 1 1289 1933)">
   <path d="M 2.83203 3.11523 L 4.375 4.6582 C 5.22461 5.48828 6.19141 5.41992 7.06055 4.46289 L 17.2754 -6.66016 C 17.7051 -6.36719 18.0957 -6.37695 18.5645 -6.47461 L 19.6094 -6.68945 L 20.3027 -5.99609 L 20.2539 -5.47852 C 20.1855 -4.95117 20.3516 -4.53125 20.8496 -4.0332 L 21.6602 -3.22266 C 22.168 -2.71484 22.8223 -2.68555 23.3008 -3.16406 L 26.5527 -6.41602 C 27.0312 -6.89453 27.0117 -7.54883 26.5039 -8.05664 L 25.6836 -8.87695 C 25.1855 -9.375 24.7754 -9.55078 24.2383 -9.47266 L 23.7109 -9.41406 L 23.0566 -10.0781 L 23.3398 -11.2207 C 23.4863 -11.7871 23.3398 -12.2559 22.7148 -12.8613 L 20.3027 -15.2539 C 16.7578 -18.7793 12.2266 -18.6719 9.11133 -15.5371 C 8.69141 -15.1074 8.64258 -14.5215 8.91602 -14.0918 C 9.15039 -13.7207 9.62891 -13.4961 10.2734 -13.6621 C 11.7871 -14.043 13.3008 -13.9258 14.7852 -12.9199 L 14.1602 -11.3379 C 13.9258 -10.752 13.9453 -10.2734 14.1797 -9.83398 L 3.01758 0.439453 C 2.08008 1.30859 1.97266 2.25586 2.83203 3.11523 Z M 10.6738 -15.1465 C 13.3398 -17.1387 16.6504 -16.8262 19.0527 -14.4141 L 21.6797 -11.8066 C 21.9141 -11.5723 21.9434 -11.3867 21.8848 -11.0938 L 21.5039 -9.53125 L 23.0762 -7.95898 L 24.043 -8.04688 C 24.3262 -8.07617 24.4141 -8.05664 24.6387 -7.83203 L 25.2637 -7.20703 L 22.5098 -4.46289 L 21.8848 -5.07812 C 21.6602 -5.30273 21.6406 -5.40039 21.6699 -5.68359 L 21.7578 -6.64062 L 20.1953 -8.20312 L 18.5742 -7.89062 C 18.291 -7.83203 18.1445 -7.83203 17.9102 -8.07617 L 15.7324 -10.2539 C 15.5078 -10.4883 15.4785 -10.625 15.6055 -10.9473 L 16.5527 -13.2227 C 14.9512 -14.7559 12.8418 -15.6055 10.8008 -14.9512 C 10.7129 -14.9219 10.6445 -14.9414 10.6152 -14.9805 C 10.5859 -15.0293 10.5859 -15.0781 10.6738 -15.1465 Z M 4.10156 2.41211 C 3.61328 1.91406 3.78906 1.61133 4.12109 1.30859 L 15.0781 -8.80859 L 16.3086 -7.57812 L 6.15234 3.34961 C 5.84961 3.68164 5.46875 3.7793 5.06836 3.37891 Z"/>
  </g>
  <text style="stroke:none;fill:black;font-family:-apple-system,&quot;SF Pro Display&quot;,&quot;SF Pro Text&quot;,Helvetica,sans-serif;font-weight:bold;" transform="matrix(1 0 0 1 1289 1953)">Exporting</text>
  <text style="stroke:none;fill:black;font-family:-apple-system,&quot;SF Pro Display&quot;,&quot;SF Pro Text&quot;,Helvetica,sans-serif;" transform="matrix(1 0 0 1 1289 1971)">Symbols should be outlined when exporting to ensure the</text>
  <text style="stroke:none;fill:black;font-family:-apple-system,&quot;SF Pro Display&quot;,&quot;SF Pro Text&quot;,Helvetica,sans-serif;" transform="matrix(1 0 0 1 1289 1989)">design is preserved when submitting to Xcode.</text>
  <text id="template-version" style="stroke:none;fill:black;font-family:-apple-system,&quot;SF Pro Display&quot;,&quot;SF Pro Text&quot;,Helvetica,sans-serif;text-anchor:end;" transform="matrix(1 0 0 1 3036 1933)">Template v.1.0</text>
  <text style="stroke:none;fill:black;font-family:-apple-system,&quot;SF Pro Display&quot;,&quot;SF Pro Text&quot;,Helvetica,sans-serif;text-anchor:end;" transform="matrix(1 0 0 1 3036 1951)">Generated from plusminus</text>
  <text style="stroke:none;fill:black;font-family:-apple-system,&quot;SF Pro Display&quot;,&quot;SF Pro Text&quot;,Helvetica,sans-serif;text-anchor:end;" transform="matrix(1 0 0 1 3036 1969)">Typeset at 100 points</text>
  <text style="stroke:none;fill:black;font-family:-apple-system,&quot;SF Pro Display&quot;,&quot;SF Pro Text&quot;,Helvetica,sans-serif;" transform="matrix(1 0 0 1 263 726)">Small</text>
  <text style="stroke:none;fill:black;font-family:-apple-system,&quot;SF Pro Display&quot;,&quot;SF Pro Text&quot;,Helvetica,sans-serif;" transform="matrix(1 0 0 1 263 1156)">Medium</text>
  <text style="stroke:none;fill:black;font-family:-apple-system,&quot;SF Pro Display&quot;,&quot;SF Pro Text&quot;,Helvetica,sans-serif;" transform="matrix(1 0 0 1 263 1586)">Large</text>
 </g>
 <g id="Guides">
  <g id="H-reference" style="fill:#27AAE1;stroke:none;" transform="matrix(1 0 0 1 339 696)">
   <path d="M 54.9316 0 L 57.666 0 L 30.5664 -70.459 L 28.0762 -70.459 L 0.976562 0 L 3.66211 0 L 12.9395 -24.4629 L 45.7031 -24.4629 Z M 29.1992 -67.0898 L 29.4434 -67.0898 L 44.8242 -26.709 L 13.8184 -26.709 Z"/>
  </g>
  <line id="Baseline-S" style="fill:none;stroke:#27AAE1;opacity:1;stroke-width:0.577;" x1="263" x2="3036" y1="696" y2="696"/>
  <line id="Capline-S" style="fill:none;stroke:#27AAE1;opacity:1;stroke-width:0.577;" x1="263" x2="3036" y1="625.541" y2="625.541"/>
  <g id="H-reference" style="fill:#27AAE1;stroke:none;" transform="matrix(1 0 0 1 339 1126)">
   <path d="M 54.9316 0 L 57.666 0 L 30.5664 -70.459 L 28.0762 -70.459 L 0.976562 0 L 3.66211 0 L 12.9395 -24.4629 L 45.7031 -24.4629 Z M 29.1992 -67.0898 L 29.4434 -67.0898 L 44.8242 -26.709 L 13.8184 -26.709 Z"/>
  </g>
  <line id="Baseline-M" style="fill:none;stroke:#27AAE1;opacity:1;stroke-width:0.577;" x1="263" x2="3036" y1="1126" y2="1126"/>
  <line id="Capline-M" style="fill:none;stroke:#27AAE1;opacity:1;stroke-width:0.577;" x1="263" x2="3036" y1="1055.54" y2="1055.54"/>
  <g id="H-reference" style="fill:#27AAE1;stroke:none;" transform="matrix(1 0 0 1 339 1556)">
   <path d="M 54.9316 0 L 57.666 0 L 30.5664 -70.459 L 28.0762 -70.459 L 0.976562 0 L 3.66211 0 L 12.9395 -24.4629 L 45.7031 -24.4629 Z M 29.1992 -67.0898 L 29.4434 -67.0898 L 44.8242 -26.709 L 13.8184 -26.709 Z"/>
  </g>
  <line id="Baseline-L" style="fill:none;stroke:#27AAE1;opacity:1;stroke-width:0.577;" x1="263" x2="3036" y1="1556" y2="1556"/>
  <line id="Capline-L" style="fill:none;stroke:#27AAE1;opacity:1;stroke-width:0.577;" x1="263" x2="3036" y1="1485.54" y2="1485.54"/>
  <rect height="119.336" id="left-margin" style="fill:#00AEEF;stroke:none;opacity:0.4;" width="12.4512" x="1407.83" y="1030.79"/>
  <rect height="119.336" id="right-margin" style="fill:#00AEEF;stroke:none;opacity:0.4;" width="12.4512" x="1479.41" y="1030.79"/>
 </g>
 <g id="Symbols">
  <g id="Black-L" transform="matrix(1 0 0 1 2876.05 1556)">
   <path d="M 57.3242 -14.9414 C 64.502 -14.9414 69.3848 -19.7266 69.3848 -26.709 L 69.3848 -42.7246 L 86.8164 -42.7246 C 93.7988 -42.7246 98.6328 -47.6562 98.6328 -54.834 C 98.6328 -61.9629 93.7988 -66.8945 86.8164 -66.8945 L 69.3848 -66.8945 L 69.3848 -82.7637 C 69.3848 -89.7949 64.502 -94.5801 57.3242 -94.5801 C 50.1953 -94.5801 45.2637 -89.7949 45.2637 -82.7637 L 45.2637 -66.8945 L 27.8809 -66.8945 C 20.8984 -66.8945 16.0645 -61.9629 16.0645 -54.834 C 16.0645 -47.6562 20.8984 -42.7246 27.8809 -42.7246 L 45.2637 -42.7246 L 45.2637 -26.709 C 45.2637 -19.7266 50.1953 -14.9414 57.3242 -14.9414 Z M 27.8809 23.584 L 86.8164 23.584 C 93.7988 23.584 98.6328 18.6523 98.6328 11.4746 C 98.6328 4.3457 93.7988 -0.585938 86.8164 -0.585938 L 27.8809 -0.585938 C 20.8984 -0.585938 16.0645 4.3457 16.0645 11.4746 C 16.0645 18.6523 20.8984 23.584 27.8809 23.584 Z"/>
  </g>
  <g id="Heavy-L" transform="matrix(1 0 0 1 2580.07 1556)">
   <path d="M 56.5918 -14.8926 C 62.6465 -14.8926 66.9434 -19.043 66.9434 -25 L 66.9434 -43.75 L 87.0117 -43.75 C 92.9688 -43.75 97.168 -48.0469 97.168 -54.1016 C 97.168 -60.2051 92.9688 -64.4531 87.0117 -64.4531 L 66.9434 -64.4531 L 66.9434 -83.0566 C 66.9434 -89.0137 62.6465 -93.1641 56.5918 -93.1641 C 50.5371 -93.1641 46.2402 -89.0137 46.2402 -83.0566 L 46.2402 -64.4531 L 26.2207 -64.4531 C 20.2637 -64.4531 16.0645 -60.2051 16.0645 -54.1016 C 16.0645 -48.0469 20.2637 -43.75 26.2207 -43.75 L 46.2402 -43.75 L 46.2402 -25 C 46.2402 -19.043 50.5371 -14.8926 56.5918 -14.8926 Z M 26.2207 21.7285 L 87.0117 21.7285 C 92.9688 21.7285 97.168 17.4316 97.168 11.377 C 97.168 5.27344 92.9688 1.02539 87.0117 1.02539 L 26.2207 1.02539 C 20.2637 1.02539 16.0645 5.27344 16.0645 11.377 C 16.0645 17.4316 20.2637 21.7285 26.2207 21.7285 Z"/>
  </g>
  <g id="Bold-L" transform="matrix(1 0 0 1 2284.19 1556)">
   <path d="M 55.7617 -14.8438 C 60.6445 -14.8438 64.1602 -18.3105 64.1602 -23.0957 L 64.1602 -44.9219 L 87.207 -44.9219 C 91.9922 -44.9219 95.5078 -48.4375 95.5078 -53.3203 C 95.5078 -58.2031 91.9922 -61.7676 87.207 -61.7676 L 64.1602 -61.7676 L 64.1602 -83.3984 C 64.1602 -88.1836 60.6445 -91.6504 55.7617 -91.6504 C 50.8789 -91.6504 47.3633 -88.1836 47.3633 -83.3984 L 47.3633 -61.7676 L 24.3652 -61.7676 C 19.5801 -61.7676 16.0645 -58.2031 16.0645 -53.3203 C 16.0645 -48.4375 19.5801 -44.9219 24.3652 -44.9219 L 47.3633 -44.9219 L 47.3633 -23.0957 C 47.3633 -18.3105 50.8789 -14.8438 55.7617 -14.8438 Z M 24.3652 19.6289 L 87.207 19.6289 C 91.9922 19.6289 95.5078 16.1133 95.5078 11.2305 C 95.5078 6.34766 91.9922 2.7832 87.207 2.7832 L 24.3652 2.7832 C 19.5801 2.7832 16.0645 6.34766 16.0645 11.2305 C 16.0645 16.1133 19.5801 19.6289 24.3652 19.6289 Z"/>
  </g>
  <g id="Semibold-L" transform="matrix(1 0 0 1 1988.04 1556)">
   <path d="M 55.1758 -14.8438 C 59.2285 -14.8438 62.2559 -17.7734 62.2559 -21.7773 L 62.2559 -45.7031 L 87.3535 -45.7031 C 91.3086 -45.7031 94.3848 -48.7305 94.3848 -52.7832 C 94.3848 -56.8359 91.3086 -59.9121 87.3535 -59.9121 L 62.2559 -59.9121 L 62.2559 -83.6426 C 62.2559 -87.5977 59.2285 -90.5762 55.1758 -90.5762 C 51.123 -90.5762 48.0957 -87.5977 48.0957 -83.6426 L 48.0957 -59.9121 L 23.0957 -59.9121 C 19.0918 -59.9121 16.0645 -56.8359 16.0645 -52.7832 C 16.0645 -48.7305 19.0918 -45.7031 23.0957 -45.7031 L 48.0957 -45.7031 L 48.0957 -21.7773 C 48.0957 -17.7734 51.123 -14.8438 55.1758 -14.8438 Z M 23.0957 18.2129 L 87.3535 18.2129 C 91.3086 18.2129 94.3848 15.1855 94.3848 11.1328 C 94.3848 7.08008 91.3086 4.05273 87.3535 4.05273 L 23.0957 4.05273 C 19.0918 4.05273 16.0645 7.08008 16.0645 11.1328 C 16.0645 15.1855 19.0918 18.2129 23.0957 18.2129 Z"/>
  </g>
  <g id="Medium-L" transform="matrix(1 0 0 1 1691.77 1556)">
   <path d="M 54.7363 -14.7949 C 58.2031 -14.7949 60.8398 -17.3828 60.8398 -20.752 L 60.8398 -46.2891 L 87.4512 -46.2891 C 90.8203 -46.2891 93.5059 -48.9746 93.5059 -52.3926 C 93.5059 -55.8105 90.8203 -58.4961 87.4512 -58.4961 L 60.8398 -58.4961 L 60.8398 -83.7891 C 60.8398 -87.1582 58.2031 -89.7461 54.7363 -89.7461 C 51.3184 -89.7461 48.6816 -87.1582 48.6816 -83.7891 L 48.6816 -58.4961 L 22.1191 -58.4961 C 18.75 -58.4961 16.0645 -55.8105 16.0645 -52.3926 C 16.0645 -48.9746 18.75 -46.2891 22.1191 -46.2891 L 48.6816 -46.2891 L 48.6816 -20.752 C 48.6816 -17.3828 51.3184 -14.7949 54.7363 -14.7949 Z M 22.1191 17.1387 L 87.4512 17.1387 C 90.8203 17.1387 93.5059 14.4531 93.5059 11.0352 C 93.5059 7.61719 90.8203 4.98047 87.4512 4.98047 L 22.1191 4.98047 C 18.75 4.98047 16.0645 7.61719 16.0645 11.0352 C 16.0645 14.4531 18.75 17.1387 22.1191 17.1387 Z"/>
  </g>
  <g id="Regular-L" transform="matrix(1 0 0 1 1395.62 1556)">
   <path d="M 54.1992 -14.7949 C 56.7871 -14.7949 58.9355 -16.8945 58.9355 -19.4336 L 58.9355 -47.0703 L 87.5977 -47.0703 C 90.1855 -47.0703 92.3828 -49.2676 92.3828 -51.8555 C 92.3828 -54.4922 90.1855 -56.6406 87.5977 -56.6406 L 58.9355 -56.6406 L 58.9355 -84.0332 C 58.9355 -86.5723 56.7871 -88.6719 54.1992 -88.6719 C 51.5625 -88.6719 49.4141 -86.5723 49.4141 -84.0332 L 49.4141 -56.6406 L 20.8496 -56.6406 C 18.2617 -56.6406 16.0645 -54.4922 16.0645 -51.8555 C 16.0645 -49.2676 18.2617 -47.0703 20.8496 -47.0703 L 49.4141 -47.0703 L 49.4141 -19.4336 C 49.4141 -16.8945 51.5625 -14.7949 54.1992 -14.7949 Z M 20.8496 15.7227 L 87.5977 15.7227 C 90.1855 15.7227 92.3828 13.5742 92.3828 10.9375 C 92.3828 8.34961 90.1855 6.20117 87.5977 6.20117 L 20.8496 6.20117 C 18.2617 6.20117 16.0645 8.34961 16.0645 10.9375 C 16.0645 13.5742 18.2617 15.7227 20.8496 15.7227 Z"/>
  </g>
  <g id="Light-L" transform="matrix(1 0 0 1 1098.91 1556)">
   <path d="M 54.1992 -14.4043 C 56.1523 -14.4043 57.7637 -16.0156 57.7637 -17.9199 L 57.7637 -47.9004 L 88.8184 -47.9004 C 90.7227 -47.9004 92.3828 -49.5117 92.3828 -51.5137 C 92.3828 -53.4668 90.7227 -55.0781 88.8184 -55.0781 L 57.7637 -55.0781 L 57.7637 -84.8145 C 57.7637 -86.7188 56.1523 -88.3301 54.1992 -88.3301 C 52.1973 -88.3301 50.5859 -86.7188 50.5859 -84.8145 L 50.5859 -55.0781 L 19.6289 -55.0781 C 17.7246 -55.0781 16.0645 -53.4668 16.0645 -51.5137 C 16.0645 -49.5117 17.7246 -47.9004 19.6289 -47.9004 L 50.5859 -47.9004 L 50.5859 -17.9199 C 50.5859 -16.0156 52.1973 -14.4043 54.1992 -14.4043 Z M 19.6289 14.8926 L 88.8184 14.8926 C 90.7227 14.8926 92.3828 13.2812 92.3828 11.3281 C 92.3828 9.375 90.7227 7.71484 88.8184 7.71484 L 19.6289 7.71484 C 17.7246 7.71484 16.0645 9.375 16.0645 11.3281 C 16.0645 13.2812 17.7246 14.8926 19.6289 14.8926 Z"/>
  </g>
  <g id="Thin-L" transform="matrix(1 0 0 1 802.199 1556)">
   <path d="M 54.1992 -13.916 C 55.2734 -13.916 56.2012 -14.8438 56.2012 -15.918 L 56.2012 -48.9746 L 90.3809 -48.9746 C 91.4551 -48.9746 92.3828 -49.9023 92.3828 -50.9766 C 92.3828 -52.0996 91.4551 -53.0273 90.3809 -53.0273 L 56.2012 -53.0273 L 56.2012 -85.8398 C 56.2012 -86.9141 55.2734 -87.8418 54.1992 -87.8418 C 53.0762 -87.8418 52.1484 -86.9141 52.1484 -85.8398 L 52.1484 -53.0273 L 18.0664 -53.0273 C 16.9922 -53.0273 16.0645 -52.0996 16.0645 -50.9766 C 16.0645 -49.9023 16.9922 -48.9746 18.0664 -48.9746 L 52.1484 -48.9746 L 52.1484 -15.918 C 52.1484 -14.8438 53.0762 -13.916 54.1992 -13.916 Z M 18.0664 13.8184 L 90.3809 13.8184 C 91.4551 13.8184 92.3828 12.9395 92.3828 11.8164 C 92.3828 10.6934 91.4551 9.76562 90.3809 9.76562 L 18.0664 9.76562 C 16.9922 9.76562 16.0645 10.6934 16.0645 11.8164 C 16.0645 12.9395 16.9922 13.8184 18.0664 13.8184 Z"/>
  </g>
  <g id="Ultralight-L" transform="matrix(1 0 0 1 505.487 1556)">
   <path d="M 54.1992 -13.6719 C 54.834 -13.6719 55.4199 -14.209 55.4199 -14.8926 L 55.4199 -49.5117 L 91.1621 -49.5117 C 91.8457 -49.5117 92.3828 -50.0977 92.3828 -50.7324 C 92.3828 -51.416 91.8457 -51.9531 91.1621 -51.9531 L 55.4199 -51.9531 L 55.4199 -86.3281 C 55.4199 -87.0117 54.834 -87.5977 54.1992 -87.5977 C 53.5156 -87.5977 52.9785 -87.0117 52.9785 -86.3281 L 52.9785 -51.9531 L 17.2852 -51.9531 C 16.6016 -51.9531 16.0645 -51.416 16.0645 -50.7324 C 16.0645 -50.0977 16.6016 -49.5117 17.2852 -49.5117 L 52.9785 -49.5117 L 52.9785 -14.8926 C 52.9785 -14.209 53.5156 -13.6719 54.1992 -13.6719 Z M 17.2852 13.2812 L 91.1621 13.2812 C 91.8457 13.2812 92.3828 12.7441 92.3828 12.0605 C 92.3828 11.377 91.8457 10.8398 91.1621 10.8398 L 17.2852 10.8398 C 16.6016 10.8398 16.0645 11.377 16.0645 12.0605 C 16.0645 12.7441 16.6016 13.2812 17.2852 13.2812 Z"/>
  </g>
  <g id="Black-M" transform="matrix(1 0 0 1 2887.97 1126)">
   <path d="M 45.459 -19.3359 C 52.0508 -19.3359 56.4941 -23.6328 56.4941 -30.127 L 56.4941 -40.0879 L 67.627 -40.0879 C 74.1699 -40.0879 78.418 -44.5312 78.418 -51.1719 C 78.418 -57.7637 74.1699 -62.207 67.627 -62.207 L 56.4941 -62.207 L 56.4941 -72.1191 C 56.4941 -78.6133 52.0508 -82.9102 45.459 -82.9102 C 38.8184 -82.9102 34.375 -78.6133 34.375 -72.1191 L 34.375 -62.207 L 23.2422 -62.207 C 16.748 -62.207 12.4512 -57.7637 12.4512 -51.1719 C 12.4512 -44.5312 16.748 -40.0879 23.2422 -40.0879 L 34.375 -40.0879 L 34.375 -30.127 C 34.375 -23.6328 38.8184 -19.3359 45.459 -19.3359 Z M 23.2422 12.4023 L 67.627 12.4023 C 74.1699 12.4023 78.418 8.00781 78.418 1.36719 C 78.418 -5.27344 74.1699 -9.66797 67.627 -9.66797 L 23.2422 -9.66797 C 16.748 -9.66797 12.4512 -5.27344 12.4512 1.36719 C 12.4512 8.00781 16.748 12.4023 23.2422 12.4023 Z"/>
  </g>
  <g id="Heavy-M" transform="matrix(1 0 0 1 2592.06 1126)">
   <path d="M 44.6289 -19.4336 C 50.2441 -19.4336 54.1016 -23.1445 54.1016 -28.6621 L 54.1016 -41.0156 L 67.5293 -41.0156 C 73.0469 -41.0156 76.8066 -44.873 76.8066 -50.4883 C 76.8066 -56.1035 73.0469 -59.9609 67.5293 -59.9609 L 54.1016 -59.9609 L 54.1016 -72.2168 C 54.1016 -77.7344 50.2441 -81.4453 44.6289 -81.4453 C 39.0137 -81.4453 35.1562 -77.7344 35.1562 -72.2168 L 35.1562 -59.9609 L 21.7285 -59.9609 C 16.2109 -59.9609 12.4512 -56.1035 12.4512 -50.4883 C 12.4512 -44.873 16.2109 -41.0156 21.7285 -41.0156 L 35.1562 -41.0156 L 35.1562 -28.6621 C 35.1562 -23.1445 39.0137 -19.4336 44.6289 -19.4336 Z M 21.7285 10.5957 L 67.5293 10.5957 C 73.0469 10.5957 76.8066 6.73828 76.8066 1.12305 C 76.8066 -4.54102 73.0469 -8.34961 67.5293 -8.34961 L 21.7285 -8.34961 C 16.2109 -8.34961 12.4512 -4.54102 12.4512 1.12305 C 12.4512 6.73828 16.2109 10.5957 21.7285 10.5957 Z"/>
  </g>
  <g id="Bold-M" transform="matrix(1 0 0 1 2296.25 1126)">
   <path d="M 43.7012 -19.4824 C 48.2422 -19.4824 51.416 -22.5586 51.416 -27.002 L 51.416 -42.041 L 67.4316 -42.041 C 71.875 -42.041 75 -45.2148 75 -49.7559 C 75 -54.248 71.875 -57.4707 67.4316 -57.4707 L 51.416 -57.4707 L 51.416 -72.3633 C 51.416 -76.7578 48.2422 -79.8828 43.7012 -79.8828 C 39.209 -79.8828 35.9863 -76.7578 35.9863 -72.3633 L 35.9863 -57.4707 L 20.0195 -57.4707 C 15.625 -57.4707 12.4512 -54.248 12.4512 -49.7559 C 12.4512 -45.2148 15.625 -42.041 20.0195 -42.041 L 35.9863 -42.041 L 35.9863 -27.002 C 35.9863 -22.5586 39.209 -19.4824 43.7012 -19.4824 Z M 20.0195 8.54492 L 67.4316 8.54492 C 71.875 8.54492 75 5.37109 75 0.830078 C 75 -3.66211 71.875 -6.83594 67.4316 -6.83594 L 20.0195 -6.83594 C 15.625 -6.83594 12.4512 -3.66211 12.4512 0.830078 C 12.4512 5.37109 15.625 8.54492 20.0195 8.54492 Z"/>
  </g>
  <g id="Semibold-M" transform="matrix(1 0 0 1 2000.15 1126)">
   <path d="M 43.0664 -19.5312 C 46.8262 -19.5312 49.5605 -22.2168 49.5605 -25.8789 L 49.5605 -42.7246 L 67.334 -42.7246 C 71.0449 -42.7246 73.7793 -45.5078 73.7793 -49.2188 C 73.7793 -52.9785 71.0449 -55.7129 67.334 -55.7129 L 49.5605 -55.7129 L 49.5605 -72.4609 C 49.5605 -76.123 46.8262 -78.8086 43.0664 -78.8086 C 39.3555 -78.8086 36.6211 -76.123 36.6211 -72.4609 L 36.6211 -55.7129 L 18.8477 -55.7129 C 15.1855 -55.7129 12.4512 -52.9785 12.4512 -49.2188 C 12.4512 -45.5078 15.1855 -42.7246 18.8477 -42.7246 L 36.6211 -42.7246 L 36.6211 -25.8789 C 36.6211 -22.2168 39.3555 -19.5312 43.0664 -19.5312 Z M 18.8477 7.17773 L 67.334 7.17773 C 71.0449 7.17773 73.7793 4.39453 73.7793 0.683594 C 73.7793 -3.07617 71.0449 -5.81055 67.334 -5.81055 L 18.8477 -5.81055 C 15.1855 -5.81055 12.4512 -3.07617 12.4512 0.683594 C 12.4512 4.39453 15.1855 7.17773 18.8477 7.17773 Z"/>
  </g>
  <g id="Medium-M" transform="matrix(1 0 0 1 1703.93 1126)">
   <path d="M 42.627 -19.5312 C 45.752 -19.5312 48.1934 -21.9238 48.1934 -25 L 48.1934 -43.2617 L 67.2852 -43.2617 C 70.4102 -43.2617 72.8027 -45.7031 72.8027 -48.8281 C 72.8027 -52.002 70.4102 -54.3945 67.2852 -54.3945 L 48.1934 -54.3945 L 48.1934 -72.5098 C 48.1934 -75.5859 45.752 -77.9785 42.627 -77.9785 C 39.4531 -77.9785 37.0605 -75.5859 37.0605 -72.5098 L 37.0605 -54.3945 L 17.9688 -54.3945 C 14.8926 -54.3945 12.4512 -52.002 12.4512 -48.8281 C 12.4512 -45.7031 14.8926 -43.2617 17.9688 -43.2617 L 37.0605 -43.2617 L 37.0605 -25 C 37.0605 -21.9238 39.4531 -19.5312 42.627 -19.5312 Z M 17.9688 6.10352 L 67.2852 6.10352 C 70.4102 6.10352 72.8027 3.66211 72.8027 0.537109 C 72.8027 -2.63672 70.4102 -5.0293 67.2852 -5.0293 L 17.9688 -5.0293 C 14.8926 -5.0293 12.4512 -2.63672 12.4512 0.537109 C 12.4512 3.66211 14.8926 6.10352 17.9688 6.10352 Z"/>
  </g>
  <g id="Regular-M" transform="matrix(1 0 0 1 1407.83 1126)">
   <path d="M 41.9922 -19.5801 C 44.3848 -19.5801 46.3867 -21.5332 46.3867 -23.877 L 46.3867 -43.9453 L 67.2363 -43.9453 C 69.5801 -43.9453 71.582 -45.9473 71.582 -48.3398 C 71.582 -50.7324 69.5801 -52.6855 67.2363 -52.6855 L 46.3867 -52.6855 L 46.3867 -72.6074 C 46.3867 -74.9512 44.3848 -76.8555 41.9922 -76.8555 C 39.5996 -76.8555 37.6465 -74.9512 37.6465 -72.6074 L 37.6465 -52.6855 L 16.7969 -52.6855 C 14.4531 -52.6855 12.4512 -50.7324 12.4512 -48.3398 C 12.4512 -45.9473 14.4531 -43.9453 16.7969 -43.9453 L 37.6465 -43.9453 L 37.6465 -23.877 C 37.6465 -21.5332 39.5996 -19.5801 41.9922 -19.5801 Z M 16.7969 4.73633 L 67.2363 4.73633 C 69.5801 4.73633 71.582 2.73438 71.582 0.341797 C 71.582 -2.05078 69.5801 -4.00391 67.2363 -4.00391 L 16.7969 -4.00391 C 14.4531 -4.00391 12.4512 -2.05078 12.4512 0.341797 C 12.4512 2.73438 14.4531 4.73633 16.7969 4.73633 Z"/>
  </g>
  <g id="Light-M" transform="matrix(1 0 0 1 1111.12 1126)">
   <path d="M 41.9922 -19.2871 C 43.7988 -19.2871 45.3125 -20.752 45.3125 -22.5098 L 45.3125 -44.6777 L 68.3105 -44.6777 C 70.0684 -44.6777 71.582 -46.1914 71.582 -47.998 C 71.582 -49.8047 70.0684 -51.3184 68.3105 -51.3184 L 45.3125 -51.3184 L 45.3125 -73.291 C 45.3125 -75.0977 43.7988 -76.5625 41.9922 -76.5625 C 40.1855 -76.5625 38.6719 -75.0977 38.6719 -73.291 L 38.6719 -51.3184 L 15.7715 -51.3184 C 13.9648 -51.3184 12.4512 -49.8047 12.4512 -47.998 C 12.4512 -46.1914 13.9648 -44.6777 15.7715 -44.6777 L 38.6719 -44.6777 L 38.6719 -22.5098 C 38.6719 -20.752 40.1855 -19.2871 41.9922 -19.2871 Z M 15.7715 4.00391 L 68.3105 4.00391 C 70.0684 4.00391 71.582 2.49023 71.582 0.683594 C 71.582 -1.12305 70.0684 -2.63672 68.3105 -2.63672 L 15.7715 -2.63672 C 13.9648 -2.63672 12.4512 -1.12305 12.4512 0.683594 C 12.4512 2.49023 13.9648 4.00391 15.7715 4.00391 Z"/>
  </g>
  <g id="Thin-M" transform="matrix(1 0 0 1 814.406 1126)">
   <path d="M 41.9922 -18.8477 C 43.0176 -18.8477 43.8965 -19.6777 43.8965 -20.7031 L 43.8965 -45.6543 L 69.6777 -45.6543 C 70.7031 -45.6543 71.582 -46.5332 71.582 -47.5586 C 71.582 -48.584 70.7031 -49.4629 69.6777 -49.4629 L 43.8965 -49.4629 L 43.8965 -74.2188 C 43.8965 -75.2441 43.0176 -76.123 41.9922 -76.123 C 40.9668 -76.123 40.0879 -75.2441 40.0879 -74.2188 L 40.0879 -49.4629 L 14.3555 -49.4629 C 13.3301 -49.4629 12.4512 -48.584 12.4512 -47.5586 C 12.4512 -46.5332 13.3301 -45.6543 14.3555 -45.6543 L 40.0879 -45.6543 L 40.0879 -20.7031 C 40.0879 -19.6777 40.9668 -18.8477 41.9922 -18.8477 Z M 14.3555 3.02734 L 69.6777 3.02734 C 70.7031 3.02734 71.582 2.14844 71.582 1.12305 C 71.582 0.0488281 70.7031 -0.78125 69.6777 -0.78125 L 14.3555 -0.78125 C 13.3301 -0.78125 12.4512 0.0488281 12.4512 1.12305 C 12.4512 2.14844 13.3301 3.02734 14.3555 3.02734 Z"/>
  </g>
  <g id="Ultralight-M" transform="matrix(1 0 0 1 517.695 1126)">
   <path d="M 41.9922 -18.6035 C 42.627 -18.6035 43.1641 -19.1406 43.1641 -19.7754 L 43.1641 -46.1426 L 70.4102 -46.1426 C 71.0449 -46.1426 71.582 -46.6797 71.582 -47.3145 C 71.582 -47.998 71.0449 -48.5352 70.4102 -48.5352 L 43.1641 -48.5352 L 43.1641 -74.707 C 43.1641 -75.3418 42.627 -75.8789 41.9922 -75.8789 C 41.3574 -75.8789 40.8203 -75.3418 40.8203 -74.707 L 40.8203 -48.5352 L 13.623 -48.5352 C 12.9883 -48.5352 12.4512 -47.998 12.4512 -47.3145 C 12.4512 -46.6797 12.9883 -46.1426 13.623 -46.1426 L 40.8203 -46.1426 L 40.8203 -19.7754 C 40.8203 -19.1406 41.3574 -18.6035 41.9922 -18.6035 Z M 13.623 2.53906 L 70.4102 2.53906 C 71.0449 2.53906 71.582 2.00195 71.582 1.31836 C 71.582 0.683594 71.0449 0.146484 70.4102 0.146484 L 13.623 0.146484 C 12.9883 0.146484 12.4512 0.683594 12.4512 1.31836 C 12.4512 2.00195 12.9883 2.53906 13.623 2.53906 Z"/>
  </g>
  <g id="Black-S" transform="matrix(1 0 0 1 2897.85 696)">
   <path d="M 35.5469 -22.8027 C 40.6738 -22.8027 44.0918 -26.123 44.0918 -31.1523 L 44.0918 -39.1113 L 52.9785 -39.1113 C 58.0078 -39.1113 61.3281 -42.5293 61.3281 -47.6562 C 61.3281 -52.7832 58.0078 -56.2012 52.9785 -56.2012 L 44.0918 -56.2012 L 44.0918 -64.1113 C 44.0918 -69.1406 40.6738 -72.4609 35.5469 -72.4609 C 30.4199 -72.4609 27.002 -69.1406 27.002 -64.1113 L 27.002 -56.2012 L 18.1152 -56.2012 C 13.0859 -56.2012 9.76562 -52.7832 9.76562 -47.6562 C 9.76562 -42.5293 13.0859 -39.1113 18.1152 -39.1113 L 27.002 -39.1113 L 27.002 -31.1523 C 27.002 -26.123 30.4199 -22.8027 35.5469 -22.8027 Z M 18.1152 1.95312 L 52.9785 1.95312 C 58.0078 1.95312 61.3281 -1.46484 61.3281 -6.5918 C 61.3281 -11.7188 58.0078 -15.1367 52.9785 -15.1367 L 18.1152 -15.1367 C 13.0859 -15.1367 9.76562 -11.7188 9.76562 -6.5918 C 9.76562 -1.46484 13.0859 1.95312 18.1152 1.95312 Z"/>
  </g>
  <g id="Heavy-S" transform="matrix(1 0 0 1 2601.75 696)">
   <path d="M 34.9121 -22.9004 C 39.3555 -22.9004 42.3828 -25.8301 42.3828 -30.1758 L 42.3828 -39.7461 L 52.7832 -39.7461 C 57.1289 -39.7461 60.1074 -42.7734 60.1074 -47.168 C 60.1074 -51.6113 57.1289 -54.6387 52.7832 -54.6387 L 42.3828 -54.6387 L 42.3828 -64.1113 C 42.3828 -68.457 39.3555 -71.4355 34.9121 -71.4355 C 30.5176 -71.4355 27.4902 -68.457 27.4902 -64.1113 L 27.4902 -54.6387 L 17.0898 -54.6387 C 12.7441 -54.6387 9.76562 -51.6113 9.76562 -47.168 C 9.76562 -42.7734 12.7441 -39.7461 17.0898 -39.7461 L 27.4902 -39.7461 L 27.4902 -30.1758 C 27.4902 -25.8301 30.5176 -22.9004 34.9121 -22.9004 Z M 17.0898 0.634766 L 52.7832 0.634766 C 57.1289 0.634766 60.1074 -2.39258 60.1074 -6.78711 C 60.1074 -11.2305 57.1289 -14.2578 52.7832 -14.2578 L 17.0898 -14.2578 C 12.7441 -14.2578 9.76562 -11.2305 9.76562 -6.78711 C 9.76562 -2.39258 12.7441 0.634766 17.0898 0.634766 Z"/>
  </g>
  <g id="Bold-S" transform="matrix(1 0 0 1 2305.72 696)">
   <path d="M 34.2285 -22.9492 C 37.8906 -22.9492 40.4785 -25.4883 40.4785 -29.0527 L 40.4785 -40.4297 L 52.5879 -40.4297 C 56.1523 -40.4297 58.7402 -43.0176 58.7402 -46.6309 C 58.7402 -50.293 56.1523 -52.8809 52.5879 -52.8809 L 40.4785 -52.8809 L 40.4785 -64.1602 C 40.4785 -67.7246 37.8906 -70.2148 34.2285 -70.2148 C 30.5664 -70.2148 27.9785 -67.7246 27.9785 -64.1602 L 27.9785 -52.8809 L 15.918 -52.8809 C 12.3535 -52.8809 9.76562 -50.293 9.76562 -46.6309 C 9.76562 -43.0176 12.3535 -40.4297 15.918 -40.4297 L 27.9785 -40.4297 L 27.9785 -29.0527 C 27.9785 -25.4883 30.5664 -22.9492 34.2285 -22.9492 Z M 15.918 -0.830078 L 52.5879 -0.830078 C 56.1523 -0.830078 58.7402 -3.41797 58.7402 -7.03125 C 58.7402 -10.6934 56.1523 -13.2812 52.5879 -13.2812 L 15.918 -13.2812 C 12.3535 -13.2812 9.76562 -10.6934 9.76562 -7.03125 C 9.76562 -3.41797 12.3535 -0.830078 15.918 -0.830078 Z"/>
  </g>
  <g id="Semibold-S" transform="matrix(1 0 0 1 2009.5 696)">
   <path d="M 33.7402 -23.0469 C 36.8652 -23.0469 39.1602 -25.293 39.1602 -28.3203 L 39.1602 -40.8691 L 52.4414 -40.8691 C 55.4688 -40.8691 57.7637 -43.1641 57.7637 -46.2891 C 57.7637 -49.4141 55.4688 -51.709 52.4414 -51.709 L 39.1602 -51.709 L 39.1602 -64.1602 C 39.1602 -67.1875 36.8652 -69.4336 33.7402 -69.4336 C 30.6641 -69.4336 28.3691 -67.1875 28.3691 -64.1602 L 28.3691 -51.709 L 15.0879 -51.709 C 12.0605 -51.709 9.76562 -49.4141 9.76562 -46.2891 C 9.76562 -43.1641 12.0605 -40.8691 15.0879 -40.8691 L 28.3691 -40.8691 L 28.3691 -28.3203 C 28.3691 -25.293 30.6641 -23.0469 33.7402 -23.0469 Z M 15.0879 -1.80664 L 52.4414 -1.80664 C 55.4688 -1.80664 57.7637 -4.10156 57.7637 -7.22656 C 57.7637 -10.3027 55.4688 -12.6465 52.4414 -12.6465 L 15.0879 -12.6465 C 12.0605 -12.6465 9.76562 -10.3027 9.76562 -7.22656 C 9.76562 -4.10156 12.0605 -1.80664 15.0879 -1.80664 Z"/>
  </g>
  <g id="Medium-S" transform="matrix(1 0 0 1 1713.16 696)">
   <path d="M 33.3984 -23.0957 C 36.084 -23.0957 38.1348 -25.0977 38.1348 -27.7344 L 38.1348 -41.2598 L 52.2949 -41.2598 C 54.9316 -41.2598 57.0312 -43.3105 57.0312 -45.9961 C 57.0312 -48.6816 54.9316 -50.7812 52.2949 -50.7812 L 38.1348 -50.7812 L 38.1348 -64.1602 C 38.1348 -66.7969 36.084 -68.7988 33.3984 -68.7988 C 30.7129 -68.7988 28.6133 -66.7969 28.6133 -64.1602 L 28.6133 -50.7812 L 14.502 -50.7812 C 11.8652 -50.7812 9.76562 -48.6816 9.76562 -45.9961 C 9.76562 -43.3105 11.8652 -41.2598 14.502 -41.2598 L 28.6133 -41.2598 L 28.6133 -27.7344 C 28.6133 -25.0977 30.7129 -23.0957 33.3984 -23.0957 Z M 14.502 -2.58789 L 52.2949 -2.58789 C 54.9316 -2.58789 57.0312 -4.63867 57.0312 -7.37305 C 57.0312 -10.0586 54.9316 -12.1094 52.2949 -12.1094 L 14.502 -12.1094 C 11.8652 -12.1094 9.76562 -10.0586 9.76562 -7.37305 C 9.76562 -4.63867 11.8652 -2.58789 14.502 -2.58789 Z"/>
  </g>
  <g id="Regular-S" transform="matrix(1 0 0 1 1416.91 696)">
   <path d="M 32.9102 -23.1445 C 35.0586 -23.1445 36.8652 -24.8535 36.8652 -27.002 L 36.8652 -41.6992 L 52.1484 -41.6992 C 54.2969 -41.6992 56.1035 -43.5059 56.1035 -45.6543 C 56.1035 -47.8027 54.2969 -49.6094 52.1484 -49.6094 L 36.8652 -49.6094 L 36.8652 -64.1602 C 36.8652 -66.2598 35.0586 -68.0176 32.9102 -68.0176 C 30.7617 -68.0176 28.9551 -66.2598 28.9551 -64.1602 L 28.9551 -49.6094 L 13.7207 -49.6094 C 11.5723 -49.6094 9.76562 -47.8027 9.76562 -45.6543 C 9.76562 -43.5059 11.5723 -41.6992 13.7207 -41.6992 L 28.9551 -41.6992 L 28.9551 -27.002 C 28.9551 -24.8535 30.7617 -23.1445 32.9102 -23.1445 Z M 13.7207 -3.56445 L 52.1484 -3.56445 C 54.2969 -3.56445 56.1035 -5.37109 56.1035 -7.51953 C 56.1035 -9.66797 54.2969 -11.4746 52.1484 -11.4746 L 13.7207 -11.4746 C 11.5723 -11.4746 9.76562 -9.66797 9.76562 -7.51953 C 9.76562 -5.37109 11.5723 -3.56445 13.7207 -3.56445 Z"/>
  </g>
  <g id="Light-S" transform="matrix(1 0 0 1 1120.2 696)">
   <path d="M 32.9102 -22.8516 C 34.5703 -22.8516 35.8887 -24.1699 35.8887 -25.7812 L 35.8887 -42.3828 L 53.125 -42.3828 C 54.7363 -42.3828 56.1035 -43.7012 56.1035 -45.3613 C 56.1035 -47.0215 54.7363 -48.3398 53.125 -48.3398 L 35.8887 -48.3398 L 35.8887 -64.7949 C 35.8887 -66.4062 34.5703 -67.7246 32.9102 -67.7246 C 31.25 -67.7246 29.9316 -66.4062 29.9316 -64.7949 L 29.9316 -48.3398 L 12.7441 -48.3398 C 11.1328 -48.3398 9.76562 -47.0215 9.76562 -45.3613 C 9.76562 -43.7012 11.1328 -42.3828 12.7441 -42.3828 L 29.9316 -42.3828 L 29.9316 -25.7812 C 29.9316 -24.1699 31.25 -22.8516 32.9102 -22.8516 Z M 12.7441 -4.24805 L 53.125 -4.24805 C 54.7363 -4.24805 56.1035 -5.56641 56.1035 -7.22656 C 56.1035 -8.88672 54.7363 -10.2051 53.125 -10.2051 L 12.7441 -10.2051 C 11.1328 -10.2051 9.76562 -8.88672 9.76562 -7.22656 C 9.76562 -5.56641 11.1328 -4.24805 12.7441 -4.24805 Z"/>
  </g>
  <g id="Thin-S" transform="matrix(1 0 0 1 823.488 696)">
   <path d="M 32.9102 -22.4609 C 33.8867 -22.4609 34.668 -23.2422 34.668 -24.2188 L 34.668 -43.2129 L 54.3457 -43.2129 C 55.2734 -43.2129 56.1035 -43.9941 56.1035 -44.9707 C 56.1035 -45.9473 55.2734 -46.7285 54.3457 -46.7285 L 34.668 -46.7285 L 34.668 -65.5762 C 34.668 -66.5527 33.8867 -67.334 32.9102 -67.334 C 31.9336 -67.334 31.1523 -66.5527 31.1523 -65.5762 L 31.1523 -46.7285 L 11.5234 -46.7285 C 10.5957 -46.7285 9.76562 -45.9473 9.76562 -44.9707 C 9.76562 -43.9941 10.5957 -43.2129 11.5234 -43.2129 L 31.1523 -43.2129 L 31.1523 -24.2188 C 31.1523 -23.2422 31.9336 -22.4609 32.9102 -22.4609 Z M 11.5234 -5.07812 L 54.3457 -5.07812 C 55.2734 -5.07812 56.1035 -5.85938 56.1035 -6.83594 C 56.1035 -7.8125 55.2734 -8.59375 54.3457 -8.59375 L 11.5234 -8.59375 C 10.5957 -8.59375 9.76562 -7.8125 9.76562 -6.83594 C 9.76562 -5.85938 10.5957 -5.07812 11.5234 -5.07812 Z"/>
  </g>
  <g id="Ultralight-S" transform="matrix(1 0 0 1 526.777 696)">
   <path d="M 32.9102 -22.2656 C 33.5449 -22.2656 34.0332 -22.7539 34.0332 -23.3887 L 34.0332 -43.6523 L 54.9805 -43.6523 C 55.6152 -43.6523 56.1035 -44.1406 56.1035 -44.7754 C 56.1035 -45.4102 55.6152 -45.8984 54.9805 -45.8984 L 34.0332 -45.8984 L 34.0332 -66.0156 C 34.0332 -66.6504 33.5449 -67.1387 32.9102 -67.1387 C 32.2754 -67.1387 31.7871 -66.6504 31.7871 -66.0156 L 31.7871 -45.8984 L 10.8887 -45.8984 C 10.2539 -45.8984 9.76562 -45.4102 9.76562 -44.7754 C 9.76562 -44.1406 10.2539 -43.6523 10.8887 -43.6523 L 31.7871 -43.6523 L 31.7871 -23.3887 C 31.7871 -22.7539 32.2754 -22.2656 32.9102 -22.2656 Z M 10.8887 -5.51758 L 54.9805 -5.51758 C 55.6152 -5.51758 56.1035 -6.00586 56.1035 -6.64062 C 56.1035 -7.27539 55.6152 -7.76367 54.9805 -7.76367 L 10.8887 -7.76367 C 10.2539 -7.76367 9.76562 -7.27539 9.76562 -6.64062 C 9.76562 -6.00586 10.2539 -5.51758 10.8887 -5.51758 Z"/>
  </g>
 </g>
</svg>
