<?xml version="1.0" encoding="UTF-8"?>
<!--Generator: Apple Native CoreSVG 123-->
<!DOCTYPE svg
PUBLIC "-//W3C//DTD SVG 1.1//EN"
       "http://www.w3.org/Graphics/SVG/1.1/DTD/svg11.dtd">
<svg version="1.1" xmlns="http://www.w3.org/2000/svg" xmlns:xlink="http://www.w3.org/1999/xlink" width="3300" height="2200">
 <!--glyph: "uni100586.medium", point size: 100.000000, font version: "Version 15.0d7e11", template writer version: "5"-->
 <g id="Notes">
  <rect height="2200" id="artboard" style="fill:white;opacity:1" width="3300" x="0" y="0"/>
  <line id="" style="fill:none;stroke:black;opacity:1;stroke-width:0.5;" x1="263" x2="3036" y1="292" y2="292"/>
  <text style="stroke:none;fill:black;font-family:-apple-system,&quot;SF Pro Display&quot;,&quot;SF Pro Text&quot;,Helvetica,sans-serif;font-weight:bold;" transform="matrix(1 0 0 1 263 322)">Weight/Scale Variations</text>
  <text style="stroke:none;fill:black;font-family:-apple-system,&quot;SF Pro Display&quot;,&quot;SF Pro Text&quot;,Helvetica,sans-serif;text-anchor:middle;" transform="matrix(1 0 0 1 559.711 322)">Ultralight</text>
  <text style="stroke:none;fill:black;font-family:-apple-system,&quot;SF Pro Display&quot;,&quot;SF Pro Text&quot;,Helvetica,sans-serif;text-anchor:middle;" transform="matrix(1 0 0 1 856.422 322)">Thin</text>
  <text style="stroke:none;fill:black;font-family:-apple-system,&quot;SF Pro Display&quot;,&quot;SF Pro Text&quot;,Helvetica,sans-serif;text-anchor:middle;" transform="matrix(1 0 0 1 1153.13 322)">Light</text>
  <text style="stroke:none;fill:black;font-family:-apple-system,&quot;SF Pro Display&quot;,&quot;SF Pro Text&quot;,Helvetica,sans-serif;text-anchor:middle;" transform="matrix(1 0 0 1 1449.84 322)">Regular</text>
  <text style="stroke:none;fill:black;font-family:-apple-system,&quot;SF Pro Display&quot;,&quot;SF Pro Text&quot;,Helvetica,sans-serif;text-anchor:middle;" transform="matrix(1 0 0 1 1746.56 322)">Medium</text>
  <text style="stroke:none;fill:black;font-family:-apple-system,&quot;SF Pro Display&quot;,&quot;SF Pro Text&quot;,Helvetica,sans-serif;text-anchor:middle;" transform="matrix(1 0 0 1 2043.27 322)">Semibold</text>
  <text style="stroke:none;fill:black;font-family:-apple-system,&quot;SF Pro Display&quot;,&quot;SF Pro Text&quot;,Helvetica,sans-serif;text-anchor:middle;" transform="matrix(1 0 0 1 2339.98 322)">Bold</text>
  <text style="stroke:none;fill:black;font-family:-apple-system,&quot;SF Pro Display&quot;,&quot;SF Pro Text&quot;,Helvetica,sans-serif;text-anchor:middle;" transform="matrix(1 0 0 1 2636.69 322)">Heavy</text>
  <text style="stroke:none;fill:black;font-family:-apple-system,&quot;SF Pro Display&quot;,&quot;SF Pro Text&quot;,Helvetica,sans-serif;text-anchor:middle;" transform="matrix(1 0 0 1 2933.4 322)">Black</text>
  <line id="" style="fill:none;stroke:black;opacity:1;stroke-width:0.5;" x1="263" x2="3036" y1="1903" y2="1903"/>
  <g id="" transform="matrix(1 0 0 1 263 1933)">
   <path d="M 9.24805 0.830078 C 13.5547 0.830078 17.1387 -2.74414 17.1387 -7.05078 C 17.1387 -11.3574 13.5449 -14.9316 9.23828 -14.9316 C 4.94141 -14.9316 1.36719 -11.3574 1.36719 -7.05078 C 1.36719 -2.74414 4.95117 0.830078 9.24805 0.830078 Z M 9.24805 -0.654297 C 5.70312 -0.654297 2.87109 -3.49609 2.87109 -7.05078 C 2.87109 -10.6055 5.69336 -13.4473 9.23828 -13.4473 C 12.793 -13.4473 15.6348 -10.6055 15.6445 -7.05078 C 15.6543 -3.49609 12.8027 -0.654297 9.24805 -0.654297 Z M 9.22852 -3.42773 C 9.69727 -3.42773 9.9707 -3.74023 9.9707 -4.25781 L 9.9707 -6.31836 L 12.1973 -6.31836 C 12.6953 -6.31836 13.0371 -6.57227 13.0371 -7.04102 C 13.0371 -7.51953 12.7148 -7.7832 12.1973 -7.7832 L 9.9707 -7.7832 L 9.9707 -10.0098 C 9.9707 -10.5273 9.69727 -10.8496 9.22852 -10.8496 C 8.75977 -10.8496 8.50586 -10.5078 8.50586 -10.0098 L 8.50586 -7.7832 L 6.29883 -7.7832 C 5.78125 -7.7832 5.44922 -7.51953 5.44922 -7.04102 C 5.44922 -6.57227 5.80078 -6.31836 6.29883 -6.31836 L 8.50586 -6.31836 L 8.50586 -4.25781 C 8.50586 -3.75977 8.75977 -3.42773 9.22852 -3.42773 Z"/>
  </g>
  <g id="" transform="matrix(1 0 0 1 281.506 1933)">
   <path d="M 11.709 2.91016 C 17.1582 2.91016 21.6699 -1.60156 21.6699 -7.05078 C 21.6699 -12.4902 17.1484 -17.0117 11.6992 -17.0117 C 6.25977 -17.0117 1.74805 -12.4902 1.74805 -7.05078 C 1.74805 -1.60156 6.26953 2.91016 11.709 2.91016 Z M 11.709 1.25 C 7.09961 1.25 3.41797 -2.44141 3.41797 -7.05078 C 3.41797 -11.6504 7.08984 -15.3516 11.6992 -15.3516 C 16.3086 -15.3516 20 -11.6504 20.0098 -7.05078 C 20.0195 -2.44141 16.3184 1.25 11.709 1.25 Z M 11.6895 -2.41211 C 12.207 -2.41211 12.5195 -2.77344 12.5195 -3.33984 L 12.5195 -6.23047 L 15.5762 -6.23047 C 16.123 -6.23047 16.5039 -6.51367 16.5039 -7.03125 C 16.5039 -7.55859 16.1426 -7.86133 15.5762 -7.86133 L 12.5195 -7.86133 L 12.5195 -10.9277 C 12.5195 -11.5039 12.207 -11.8555 11.6895 -11.8555 C 11.1719 -11.8555 10.8789 -11.4844 10.8789 -10.9277 L 10.8789 -7.86133 L 7.83203 -7.86133 C 7.26562 -7.86133 6.89453 -7.55859 6.89453 -7.03125 C 6.89453 -6.51367 7.28516 -6.23047 7.83203 -6.23047 L 10.8789 -6.23047 L 10.8789 -3.33984 C 10.8789 -2.79297 11.1719 -2.41211 11.6895 -2.41211 Z"/>
  </g>
  <g id="" transform="matrix(1 0 0 1 304.924 1933)">
   <path d="M 14.9707 5.67383 C 21.9336 5.67383 27.6953 -0.078125 27.6953 -7.04102 C 27.6953 -14.0039 21.9238 -19.7559 14.9609 -19.7559 C 8.00781 -19.7559 2.25586 -14.0039 2.25586 -7.04102 C 2.25586 -0.078125 8.01758 5.67383 14.9707 5.67383 Z M 14.9707 3.85742 C 8.93555 3.85742 4.08203 -1.00586 4.08203 -7.04102 C 4.08203 -13.0762 8.92578 -17.9395 14.9609 -17.9395 C 21.0059 -17.9395 25.8594 -13.0762 25.8691 -7.04102 C 25.8789 -1.00586 21.0156 3.85742 14.9707 3.85742 Z M 14.9512 -1.06445 C 15.5176 -1.06445 15.8691 -1.45508 15.8691 -2.06055 L 15.8691 -6.13281 L 20.1074 -6.13281 C 20.6934 -6.13281 21.1133 -6.46484 21.1133 -7.02148 C 21.1133 -7.59766 20.7227 -7.93945 20.1074 -7.93945 L 15.8691 -7.93945 L 15.8691 -12.1875 C 15.8691 -12.8027 15.5176 -13.1934 14.9512 -13.1934 C 14.3848 -13.1934 14.0625 -12.7832 14.0625 -12.1875 L 14.0625 -7.93945 L 9.83398 -7.93945 C 9.21875 -7.93945 8.80859 -7.59766 8.80859 -7.02148 C 8.80859 -6.46484 9.23828 -6.13281 9.83398 -6.13281 L 14.0625 -6.13281 L 14.0625 -2.06055 C 14.0625 -1.47461 14.3848 -1.06445 14.9512 -1.06445 Z"/>
  </g>
  <text style="stroke:none;fill:black;font-family:-apple-system,&quot;SF Pro Display&quot;,&quot;SF Pro Text&quot;,Helvetica,sans-serif;font-weight:bold;" transform="matrix(1 0 0 1 263 1953)">Design Variations</text>
  <text style="stroke:none;fill:black;font-family:-apple-system,&quot;SF Pro Display&quot;,&quot;SF Pro Text&quot;,Helvetica,sans-serif;" transform="matrix(1 0 0 1 263 1971)">Symbols are supported in up to nine weights and three scales.</text>
  <text style="stroke:none;fill:black;font-family:-apple-system,&quot;SF Pro Display&quot;,&quot;SF Pro Text&quot;,Helvetica,sans-serif;" transform="matrix(1 0 0 1 263 1989)">For optimal layout with text and other symbols, vertically align</text>
  <text style="stroke:none;fill:black;font-family:-apple-system,&quot;SF Pro Display&quot;,&quot;SF Pro Text&quot;,Helvetica,sans-serif;" transform="matrix(1 0 0 1 263 2007)">symbols with the adjacent text.</text>
  <rect height="14" id="" style="fill:#00AEEF;stroke:none;opacity:0.4;" width="3" x="776" y="1919"/>
  <g id="" transform="matrix(1 0 0 1 779 1933)">
   <path d="M 10.5273 0 L 12.373 0 L 7.17773 -14.0918 L 5.43945 -14.0918 L 0.244141 0 L 2.08984 0 L 3.50586 -4.0332 L 9.11133 -4.0332 Z M 6.2793 -11.9531 L 6.33789 -11.9531 L 8.59375 -5.52734 L 4.02344 -5.52734 Z"/>
  </g>
  <rect height="14" id="" style="fill:#00AEEF;stroke:none;opacity:0.4;" width="3" x="791.617" y="1919"/>
  <text style="stroke:none;fill:black;font-family:-apple-system,&quot;SF Pro Display&quot;,&quot;SF Pro Text&quot;,Helvetica,sans-serif;font-weight:bold;" transform="matrix(1 0 0 1 776 1953)">Margins</text>
  <text style="stroke:none;fill:black;font-family:-apple-system,&quot;SF Pro Display&quot;,&quot;SF Pro Text&quot;,Helvetica,sans-serif;" transform="matrix(1 0 0 1 776 1971)">Leading and trailing margins on the left and right side of each symbol</text>
  <text style="stroke:none;fill:black;font-family:-apple-system,&quot;SF Pro Display&quot;,&quot;SF Pro Text&quot;,Helvetica,sans-serif;" transform="matrix(1 0 0 1 776 1989)">can be adjusted by modifying the width of the blue rectangles.</text>
  <text style="stroke:none;fill:black;font-family:-apple-system,&quot;SF Pro Display&quot;,&quot;SF Pro Text&quot;,Helvetica,sans-serif;" transform="matrix(1 0 0 1 776 2007)">Modifications are automatically applied proportionally to all</text>
  <text style="stroke:none;fill:black;font-family:-apple-system,&quot;SF Pro Display&quot;,&quot;SF Pro Text&quot;,Helvetica,sans-serif;" transform="matrix(1 0 0 1 776 2025)">scales and weights.</text>
  <g id="" transform="matrix(1 0 0 1 1289 1933)">
   <path d="M 2.83203 3.11523 L 4.375 4.6582 C 5.22461 5.48828 6.19141 5.41992 7.06055 4.46289 L 17.2754 -6.66016 C 17.7051 -6.36719 18.0957 -6.37695 18.5645 -6.47461 L 19.6094 -6.68945 L 20.3027 -5.99609 L 20.2539 -5.47852 C 20.1855 -4.95117 20.3516 -4.53125 20.8496 -4.0332 L 21.6602 -3.22266 C 22.168 -2.71484 22.8223 -2.68555 23.3008 -3.16406 L 26.5527 -6.41602 C 27.0312 -6.89453 27.0117 -7.54883 26.5039 -8.05664 L 25.6836 -8.87695 C 25.1855 -9.375 24.7754 -9.55078 24.2383 -9.47266 L 23.7109 -9.41406 L 23.0566 -10.0781 L 23.3398 -11.2207 C 23.4863 -11.7871 23.3398 -12.2559 22.7148 -12.8613 L 20.3027 -15.2539 C 16.7578 -18.7793 12.2266 -18.6719 9.11133 -15.5371 C 8.69141 -15.1074 8.64258 -14.5215 8.91602 -14.0918 C 9.15039 -13.7207 9.62891 -13.4961 10.2734 -13.6621 C 11.7871 -14.043 13.3008 -13.9258 14.7852 -12.9199 L 14.1602 -11.3379 C 13.9258 -10.752 13.9453 -10.2734 14.1797 -9.83398 L 3.01758 0.439453 C 2.08008 1.30859 1.97266 2.25586 2.83203 3.11523 Z M 10.6738 -15.1465 C 13.3398 -17.1387 16.6504 -16.8262 19.0527 -14.4141 L 21.6797 -11.8066 C 21.9141 -11.5723 21.9434 -11.3867 21.8848 -11.0938 L 21.5039 -9.53125 L 23.0762 -7.95898 L 24.043 -8.04688 C 24.3262 -8.07617 24.4141 -8.05664 24.6387 -7.83203 L 25.2637 -7.20703 L 22.5098 -4.46289 L 21.8848 -5.07812 C 21.6602 -5.30273 21.6406 -5.40039 21.6699 -5.68359 L 21.7578 -6.64062 L 20.1953 -8.20312 L 18.5742 -7.89062 C 18.291 -7.83203 18.1445 -7.83203 17.9102 -8.07617 L 15.7324 -10.2539 C 15.5078 -10.4883 15.4785 -10.625 15.6055 -10.9473 L 16.5527 -13.2227 C 14.9512 -14.7559 12.8418 -15.6055 10.8008 -14.9512 C 10.7129 -14.9219 10.6445 -14.9414 10.6152 -14.9805 C 10.5859 -15.0293 10.5859 -15.0781 10.6738 -15.1465 Z M 4.10156 2.41211 C 3.61328 1.91406 3.78906 1.61133 4.12109 1.30859 L 15.0781 -8.80859 L 16.3086 -7.57812 L 6.15234 3.34961 C 5.84961 3.68164 5.46875 3.7793 5.06836 3.37891 Z"/>
  </g>
  <text style="stroke:none;fill:black;font-family:-apple-system,&quot;SF Pro Display&quot;,&quot;SF Pro Text&quot;,Helvetica,sans-serif;font-weight:bold;" transform="matrix(1 0 0 1 1289 1953)">Exporting</text>
  <text style="stroke:none;fill:black;font-family:-apple-system,&quot;SF Pro Display&quot;,&quot;SF Pro Text&quot;,Helvetica,sans-serif;" transform="matrix(1 0 0 1 1289 1971)">Symbols should be outlined when exporting to ensure the</text>
  <text style="stroke:none;fill:black;font-family:-apple-system,&quot;SF Pro Display&quot;,&quot;SF Pro Text&quot;,Helvetica,sans-serif;" transform="matrix(1 0 0 1 1289 1989)">design is preserved when submitting to Xcode.</text>
  <text id="template-version" style="stroke:none;fill:black;font-family:-apple-system,&quot;SF Pro Display&quot;,&quot;SF Pro Text&quot;,Helvetica,sans-serif;text-anchor:end;" transform="matrix(1 0 0 1 3036 1933)">Template v.1.0</text>
  <text style="stroke:none;fill:black;font-family:-apple-system,&quot;SF Pro Display&quot;,&quot;SF Pro Text&quot;,Helvetica,sans-serif;text-anchor:end;" transform="matrix(1 0 0 1 3036 1951)">Generated from eyeglasses</text>
  <text style="stroke:none;fill:black;font-family:-apple-system,&quot;SF Pro Display&quot;,&quot;SF Pro Text&quot;,Helvetica,sans-serif;text-anchor:end;" transform="matrix(1 0 0 1 3036 1969)">Typeset at 100 points</text>
  <text style="stroke:none;fill:black;font-family:-apple-system,&quot;SF Pro Display&quot;,&quot;SF Pro Text&quot;,Helvetica,sans-serif;" transform="matrix(1 0 0 1 263 726)">Small</text>
  <text style="stroke:none;fill:black;font-family:-apple-system,&quot;SF Pro Display&quot;,&quot;SF Pro Text&quot;,Helvetica,sans-serif;" transform="matrix(1 0 0 1 263 1156)">Medium</text>
  <text style="stroke:none;fill:black;font-family:-apple-system,&quot;SF Pro Display&quot;,&quot;SF Pro Text&quot;,Helvetica,sans-serif;" transform="matrix(1 0 0 1 263 1586)">Large</text>
 </g>
 <g id="Guides">
  <g id="H-reference" style="fill:#27AAE1;stroke:none;" transform="matrix(1 0 0 1 339 696)">
   <path d="M 54.9316 0 L 57.666 0 L 30.5664 -70.459 L 28.0762 -70.459 L 0.976562 0 L 3.66211 0 L 12.9395 -24.4629 L 45.7031 -24.4629 Z M 29.1992 -67.0898 L 29.4434 -67.0898 L 44.8242 -26.709 L 13.8184 -26.709 Z"/>
  </g>
  <line id="Baseline-S" style="fill:none;stroke:#27AAE1;opacity:1;stroke-width:0.577;" x1="263" x2="3036" y1="696" y2="696"/>
  <line id="Capline-S" style="fill:none;stroke:#27AAE1;opacity:1;stroke-width:0.577;" x1="263" x2="3036" y1="625.541" y2="625.541"/>
  <g id="H-reference" style="fill:#27AAE1;stroke:none;" transform="matrix(1 0 0 1 339 1126)">
   <path d="M 54.9316 0 L 57.666 0 L 30.5664 -70.459 L 28.0762 -70.459 L 0.976562 0 L 3.66211 0 L 12.9395 -24.4629 L 45.7031 -24.4629 Z M 29.1992 -67.0898 L 29.4434 -67.0898 L 44.8242 -26.709 L 13.8184 -26.709 Z"/>
  </g>
  <line id="Baseline-M" style="fill:none;stroke:#27AAE1;opacity:1;stroke-width:0.577;" x1="263" x2="3036" y1="1126" y2="1126"/>
  <line id="Capline-M" style="fill:none;stroke:#27AAE1;opacity:1;stroke-width:0.577;" x1="263" x2="3036" y1="1055.54" y2="1055.54"/>
  <g id="H-reference" style="fill:#27AAE1;stroke:none;" transform="matrix(1 0 0 1 339 1556)">
   <path d="M 54.9316 0 L 57.666 0 L 30.5664 -70.459 L 28.0762 -70.459 L 0.976562 0 L 3.66211 0 L 12.9395 -24.4629 L 45.7031 -24.4629 Z M 29.1992 -67.0898 L 29.4434 -67.0898 L 44.8242 -26.709 L 13.8184 -26.709 Z"/>
  </g>
  <line id="Baseline-L" style="fill:none;stroke:#27AAE1;opacity:1;stroke-width:0.577;" x1="263" x2="3036" y1="1556" y2="1556"/>
  <line id="Capline-L" style="fill:none;stroke:#27AAE1;opacity:1;stroke-width:0.577;" x1="263" x2="3036" y1="1485.54" y2="1485.54"/>
  <rect height="119.336" id="left-margin" style="fill:#00AEEF;stroke:none;opacity:0.4;" width="8.74023" x="1371.79" y="1030.79"/>
  <rect height="119.336" id="right-margin" style="fill:#00AEEF;stroke:none;opacity:0.4;" width="8.74023" x="1519.16" y="1030.79"/>
 </g>
 <g id="Symbols">
  <g id="Black-L" transform="matrix(1 0 0 1 2819.26 1556)">
   <path d="M 65.2832 8.98438 C 86.5234 8.98438 103.906 -7.51953 105.957 -27.8809 C 108.691 -28.8574 111.67 -29.1992 114.111 -29.1992 C 116.602 -29.1992 119.58 -28.8574 122.314 -27.8809 C 124.316 -7.27539 141.699 8.98438 162.988 8.98438 C 183.643 8.98438 200.635 -6.20117 203.564 -25.8789 L 212.109 -25.8789 C 215.576 -25.8789 216.992 -28.0273 216.992 -30.9082 L 216.992 -35.3516 C 216.992 -38.2812 215.576 -40.2344 212.109 -40.2344 L 203.125 -40.2344 C 199.268 -58.7402 182.812 -72.7539 162.988 -72.7539 C 144.482 -72.7539 128.955 -60.498 123.877 -43.75 C 120.752 -44.9219 117.139 -45.4102 114.111 -45.4102 C 111.133 -45.4102 107.52 -44.9219 104.395 -43.75 C 99.3164 -60.498 83.6914 -72.7539 65.2832 -72.7539 C 45.8984 -72.7539 29.7363 -59.375 25.3906 -41.4551 L 16.1621 -41.4551 C 12.6465 -41.4551 11.2793 -39.5508 11.2793 -36.5723 L 11.2793 -30.9082 C 11.2793 -28.0273 12.6465 -25.8789 16.1621 -25.8789 L 24.707 -25.8789 C 27.6367 -6.25 44.5312 8.98438 65.2832 8.98438 Z M 65.2832 -8.05664 C 52.0996 -8.05664 41.4062 -18.6523 41.4062 -31.8848 C 41.4062 -45.1172 52.0996 -55.7617 65.2832 -55.7617 C 78.418 -55.7617 89.1602 -45.1172 89.1602 -31.8848 C 89.1602 -18.6523 78.5645 -8.05664 65.2832 -8.05664 Z M 162.988 -8.05664 C 149.658 -8.05664 139.062 -18.6523 139.062 -31.8848 C 139.062 -45.1172 149.658 -55.7617 162.988 -55.7617 C 176.123 -55.7617 186.816 -45.1172 186.816 -31.8848 C 186.816 -18.6523 176.123 -8.05664 162.988 -8.05664 Z"/>
  </g>
  <g id="Heavy-L" transform="matrix(1 0 0 1 2526.24 1556)">
   <path d="M 63.1348 7.03125 C 83.8379 7.03125 100.684 -9.17969 102.246 -29.1016 C 104.98 -30.127 108.008 -30.4688 110.449 -30.4688 C 112.939 -30.4688 115.918 -30.127 118.652 -29.1504 C 120.215 -8.98438 137.061 7.03125 157.764 7.03125 C 177.686 7.03125 194.141 -7.76367 196.729 -26.8555 L 205.029 -26.8555 C 208.35 -26.8555 209.619 -28.8574 209.619 -31.543 L 209.619 -35.4492 C 209.619 -38.2324 208.35 -40.0391 205.029 -40.0391 L 196.338 -40.0391 C 192.676 -57.9102 176.807 -71.4355 157.764 -71.4355 C 139.844 -71.4355 124.805 -59.4238 120.068 -43.1641 C 116.992 -44.3359 113.428 -44.8242 110.449 -44.8242 C 107.471 -44.8242 103.906 -44.3359 100.83 -43.1641 C 96.0449 -59.4238 81.0059 -71.4355 63.1348 -71.4355 C 44.4336 -71.4355 28.8086 -58.3496 24.8047 -40.9668 L 15.8691 -40.9668 C 12.5977 -40.9668 11.2793 -39.1602 11.2793 -36.377 L 11.2793 -31.543 C 11.2793 -28.8574 12.5977 -26.8555 15.8691 -26.8555 L 24.1699 -26.8555 C 26.7578 -7.8125 43.1152 7.03125 63.1348 7.03125 Z M 63.1348 -7.86133 C 49.7559 -7.86133 38.8184 -18.7012 38.8184 -32.1777 C 38.8184 -45.6543 49.7559 -56.4941 63.1348 -56.4941 C 76.5625 -56.4941 87.5 -45.6543 87.5 -32.1777 C 87.5 -18.7012 76.709 -7.86133 63.1348 -7.86133 Z M 157.764 -7.86133 C 144.189 -7.86133 133.398 -18.7012 133.398 -32.1777 C 133.398 -45.6543 144.189 -56.4941 157.764 -56.4941 C 171.191 -56.4941 182.08 -45.6543 182.08 -32.1777 C 182.08 -18.7012 171.191 -7.86133 157.764 -7.86133 Z"/>
  </g>
  <g id="Bold-L" transform="matrix(1 0 0 1 2233.63 1556)">
   <path d="M 60.791 4.88281 C 80.8105 4.88281 97.0703 -11.0352 98.1445 -30.5176 C 100.879 -31.543 103.857 -31.9336 106.348 -31.9336 C 108.838 -31.9336 111.816 -31.543 114.551 -30.5176 C 115.625 -10.8398 131.885 4.88281 151.904 4.88281 C 171.094 4.88281 186.865 -9.47266 189.16 -27.9297 L 197.119 -27.9297 C 200.195 -27.9297 201.416 -29.7852 201.416 -32.2754 L 201.416 -35.5469 C 201.416 -38.1348 200.195 -39.8438 197.119 -39.8438 L 188.721 -39.8438 C 185.303 -56.9336 170.117 -69.9219 151.904 -69.9219 C 134.668 -69.9219 120.215 -58.252 115.869 -42.5293 C 112.842 -43.7012 109.277 -44.1895 106.348 -44.1895 C 103.418 -44.1895 99.8535 -43.7012 96.8262 -42.5293 C 92.4316 -58.252 77.9785 -69.9219 60.791 -69.9219 C 42.7734 -69.9219 27.7832 -57.2266 24.1211 -40.4297 L 15.5762 -40.4297 C 12.5 -40.4297 11.2793 -38.7695 11.2793 -36.1328 L 11.2793 -32.2754 C 11.2793 -29.7852 12.5 -27.9297 15.5762 -27.9297 L 23.584 -27.9297 C 25.8301 -9.52148 41.5527 4.88281 60.791 4.88281 Z M 60.791 -7.66602 C 47.0703 -7.66602 35.9375 -18.75 35.9375 -32.5195 C 35.9375 -46.2891 47.0703 -57.373 60.791 -57.373 C 74.4629 -57.373 85.6445 -46.2891 85.6445 -32.5195 C 85.6445 -18.75 74.6094 -7.66602 60.791 -7.66602 Z M 151.904 -7.66602 C 138.086 -7.66602 127.051 -18.75 127.051 -32.5195 C 127.051 -46.2891 138.086 -57.373 151.904 -57.373 C 165.625 -57.373 176.758 -46.2891 176.758 -32.5195 C 176.758 -18.75 165.625 -7.66602 151.904 -7.66602 Z"/>
  </g>
  <g id="Semibold-L" transform="matrix(1 0 0 1 1939.75 1556)">
   <path d="M 59.1309 3.41797 C 78.7598 3.41797 94.5801 -12.3535 95.2637 -31.4453 C 97.998 -32.5195 101.025 -32.9102 103.516 -32.9102 C 106.006 -32.9102 109.033 -32.5195 111.768 -31.4453 C 112.451 -12.1582 128.271 3.41797 147.9 3.41797 C 166.504 3.41797 181.836 -10.6934 183.887 -28.6621 L 191.65 -28.6621 C 194.58 -28.6621 195.752 -30.3711 195.752 -32.8125 L 195.752 -35.5957 C 195.752 -38.0859 194.58 -39.6484 191.65 -39.6484 L 183.447 -39.6484 C 180.176 -56.25 165.527 -68.8965 147.9 -68.8965 C 131.104 -68.8965 117.09 -57.4707 112.939 -42.0898 C 109.961 -43.2617 106.445 -43.75 103.516 -43.75 C 100.586 -43.75 97.0703 -43.2617 94.0918 -42.0898 C 89.9414 -57.4707 75.8789 -68.8965 59.1309 -68.8965 C 41.6504 -68.8965 27.0508 -56.4453 23.6816 -40.0391 L 15.3809 -40.0391 C 12.4512 -40.0391 11.2793 -38.4766 11.2793 -35.9863 L 11.2793 -32.8125 C 11.2793 -30.3711 12.4512 -28.6621 15.3809 -28.6621 L 23.1445 -28.6621 C 25.1953 -10.6934 40.4785 3.41797 59.1309 3.41797 Z M 59.1309 -7.51953 C 45.2637 -7.51953 33.9355 -18.7988 33.9355 -32.7148 C 33.9355 -46.6797 45.2637 -57.959 59.1309 -57.959 C 73.0469 -57.959 84.375 -46.6797 84.375 -32.7148 C 84.375 -18.7988 73.1934 -7.51953 59.1309 -7.51953 Z M 147.9 -7.51953 C 133.838 -7.51953 122.656 -18.7988 122.656 -32.7148 C 122.656 -46.6797 133.838 -57.959 147.9 -57.959 C 161.768 -57.959 173.096 -46.6797 173.096 -32.7148 C 173.096 -18.7988 161.768 -7.51953 147.9 -7.51953 Z"/>
  </g>
  <g id="Medium-L" transform="matrix(1 0 0 1 1645.19 1556)">
   <path d="M 57.9102 2.29492 C 77.1484 2.29492 92.6758 -13.3301 93.1152 -32.1289 C 95.8496 -33.252 98.877 -33.6426 101.367 -33.6426 C 103.857 -33.6426 106.885 -33.252 109.619 -32.1289 C 110.059 -13.1348 125.586 2.29492 144.824 2.29492 C 163.086 2.29492 178.027 -11.5723 179.883 -29.1992 L 187.549 -29.1992 C 190.332 -29.1992 191.455 -30.8594 191.455 -33.2031 L 191.455 -35.6445 C 191.455 -38.0371 190.332 -39.5508 187.549 -39.5508 L 179.443 -39.5508 C 176.318 -55.7617 162.012 -68.1152 144.824 -68.1152 C 128.369 -68.1152 114.648 -56.8359 110.742 -41.748 C 107.764 -42.9199 104.248 -43.4082 101.367 -43.4082 C 98.4863 -43.4082 94.9707 -42.9199 91.9922 -41.748 C 88.0371 -56.8359 74.2676 -68.1152 57.9102 -68.1152 C 40.7715 -68.1152 26.5137 -55.8594 23.3398 -39.7949 L 15.1855 -39.7949 C 12.4023 -39.7949 11.2793 -38.2324 11.2793 -35.8887 L 11.2793 -33.2031 C 11.2793 -30.8594 12.4023 -29.1992 15.1855 -29.1992 L 22.8516 -29.1992 C 24.707 -11.5723 39.6484 2.29492 57.9102 2.29492 Z M 57.9102 -7.42188 C 43.8477 -7.42188 32.4219 -18.7988 32.4219 -32.9102 C 32.4219 -47.0215 43.8477 -58.3984 57.9102 -58.3984 C 71.9238 -58.3984 83.3984 -47.0215 83.3984 -32.9102 C 83.3984 -18.7988 72.1191 -7.42188 57.9102 -7.42188 Z M 144.824 -7.42188 C 130.615 -7.42188 119.336 -18.7988 119.336 -32.9102 C 119.336 -47.0215 130.615 -58.3984 144.824 -58.3984 C 158.887 -58.3984 170.312 -47.0215 170.312 -32.9102 C 170.312 -18.7988 158.887 -7.42188 144.824 -7.42188 Z"/>
  </g>
  <g id="Regular-L" transform="matrix(1 0 0 1 1351.28 1556)">
   <path d="M 56.2988 0.830078 C 75.0977 0.830078 90.1855 -14.5508 90.2344 -33.0566 C 93.0176 -34.1797 96.0938 -34.6191 98.584 -34.6191 C 101.074 -34.6191 104.102 -34.1797 106.885 -33.0566 C 106.885 -14.4531 122.021 0.830078 140.82 0.830078 C 158.545 0.830078 173.096 -12.7441 174.707 -29.9316 L 182.129 -29.9316 C 184.814 -29.9316 185.84 -31.4941 185.84 -33.6914 L 185.84 -35.7422 C 185.84 -37.9883 184.814 -39.4043 182.129 -39.4043 L 174.268 -39.4043 C 171.289 -55.0781 157.471 -67.0898 140.82 -67.0898 C 124.854 -67.0898 111.523 -56.0547 107.91 -41.3086 C 104.932 -42.4805 101.416 -42.9688 98.584 -42.9688 C 95.7031 -42.9688 92.1875 -42.4805 89.2578 -41.3086 C 85.5957 -56.0547 72.2168 -67.0898 56.2988 -67.0898 C 39.6484 -67.0898 25.8301 -55.0781 22.9004 -39.4043 L 14.9902 -39.4043 C 12.3535 -39.4043 11.2793 -37.9883 11.2793 -35.7422 L 11.2793 -33.6914 C 11.2793 -31.4941 12.3535 -29.9316 14.9902 -29.9316 L 22.4609 -29.9316 C 24.0723 -12.7441 38.5742 0.830078 56.2988 0.830078 Z M 56.2988 -7.27539 C 42.041 -7.27539 30.4688 -18.8477 30.4688 -33.1543 C 30.4688 -47.4121 42.041 -58.9844 56.2988 -58.9844 C 70.5078 -58.9844 82.1289 -47.4121 82.1289 -33.1543 C 82.1289 -18.8477 70.7031 -7.27539 56.2988 -7.27539 Z M 140.82 -7.27539 C 126.465 -7.27539 114.99 -18.8477 114.99 -33.1543 C 114.99 -47.4121 126.465 -58.9844 140.82 -58.9844 C 155.078 -58.9844 166.699 -47.4121 166.699 -33.1543 C 166.699 -18.8477 155.078 -7.27539 140.82 -7.27539 Z"/>
  </g>
  <g id="Light-L" transform="matrix(1 0 0 1 1057.45 1556)">
   <path d="M 54.4922 -1.41602 C 72.4609 -1.41602 86.9629 -16.1133 86.9629 -33.8867 C 86.9629 -34.0332 86.9629 -34.2285 86.9141 -34.4238 C 89.7949 -35.7422 93.0664 -36.2305 95.6543 -36.2305 C 98.291 -36.2305 101.562 -35.7422 104.395 -34.4238 C 104.395 -34.2285 104.395 -34.082 104.395 -33.8867 C 104.395 -16.0156 118.848 -1.41602 136.865 -1.41602 C 153.955 -1.41602 167.969 -14.6484 169.287 -31.3477 L 176.709 -31.3477 C 179.102 -31.3477 180.078 -32.6172 180.078 -34.6191 L 180.078 -36.1816 C 180.078 -38.1836 179.102 -39.4043 176.709 -39.4043 L 168.896 -39.4043 C 166.26 -54.6387 152.93 -66.3574 136.865 -66.3574 C 121.484 -66.3574 108.691 -55.6641 105.273 -41.4062 C 102.295 -42.7734 98.6328 -43.2617 95.6543 -43.2617 C 92.7246 -43.2617 89.0625 -42.7734 86.0352 -41.4062 C 82.6172 -55.6641 69.7754 -66.3574 54.4922 -66.3574 C 38.4277 -66.3574 25.0977 -54.6387 22.4609 -39.4043 L 14.6484 -39.4043 C 12.2559 -39.4043 11.2793 -38.1836 11.2793 -36.1816 L 11.2793 -34.6191 C 11.2793 -32.6172 12.2559 -31.3477 14.6484 -31.3477 L 22.0703 -31.3477 C 23.3887 -14.6484 37.3535 -1.41602 54.4922 -1.41602 Z M 54.4922 -7.66602 C 39.9902 -7.66602 28.2715 -19.3848 28.2715 -33.8867 C 28.2715 -48.3398 39.9902 -60.0586 54.4922 -60.0586 C 68.8965 -60.0586 80.6641 -48.3398 80.6641 -33.8867 C 80.6641 -19.3848 69.043 -7.66602 54.4922 -7.66602 Z M 136.865 -7.66602 C 122.314 -7.66602 110.693 -19.3848 110.693 -33.8867 C 110.693 -48.3398 122.314 -60.0586 136.865 -60.0586 C 151.318 -60.0586 163.037 -48.3398 163.037 -33.8867 C 163.037 -19.3848 151.318 -7.66602 136.865 -7.66602 Z"/>
  </g>
  <g id="Thin-L" transform="matrix(1 0 0 1 764.601 1556)">
   <path d="M 52.0508 -4.3457 C 68.9941 -4.3457 82.5684 -18.1152 82.5684 -34.8633 C 82.5684 -35.2539 82.5684 -35.6934 82.5195 -36.1328 C 85.498 -37.7441 89.0137 -38.3789 91.8457 -38.3789 C 94.6289 -38.3789 98.1934 -37.7441 101.123 -36.1328 C 101.123 -35.6934 101.074 -35.2539 101.074 -34.8633 C 101.074 -18.0664 114.697 -4.3457 131.592 -4.3457 C 147.9 -4.3457 161.23 -17.1875 162.109 -33.1543 L 169.531 -33.1543 C 171.533 -33.1543 172.363 -34.1309 172.363 -35.8398 L 172.363 -36.8164 C 172.363 -38.4766 171.533 -39.4531 169.531 -39.4531 L 161.768 -39.4531 C 159.57 -54.0527 146.924 -65.3809 131.592 -65.3809 C 116.992 -65.3809 104.883 -55.127 101.855 -41.5527 C 98.8281 -43.1152 94.9219 -43.7012 91.8457 -43.7012 C 88.7207 -43.7012 84.8145 -43.1152 81.8359 -41.5527 C 78.7598 -55.127 66.6016 -65.3809 52.0508 -65.3809 C 36.7676 -65.3809 24.1211 -54.0527 21.875 -39.4531 L 14.1602 -39.4531 C 12.1094 -39.4531 11.2793 -38.4766 11.2793 -36.8164 L 11.2793 -35.8398 C 11.2793 -34.1309 12.1094 -33.1543 14.1602 -33.1543 L 21.582 -33.1543 C 22.4609 -17.1875 35.7422 -4.3457 52.0508 -4.3457 Z M 52.0508 -8.20312 C 37.3047 -8.20312 25.3906 -20.1172 25.3906 -34.8633 C 25.3906 -49.5605 37.3047 -61.5234 52.0508 -61.5234 C 66.6992 -61.5234 78.7109 -49.5605 78.7109 -34.8633 C 78.7109 -20.1172 66.8457 -8.20312 52.0508 -8.20312 Z M 131.592 -8.20312 C 116.797 -8.20312 104.932 -20.1172 104.932 -34.8633 C 104.932 -49.5605 116.797 -61.5234 131.592 -61.5234 C 146.338 -61.5234 158.252 -49.5605 158.252 -34.8633 C 158.252 -20.1172 146.338 -8.20312 131.592 -8.20312 Z"/>
  </g>
  <g id="Ultralight-L" transform="matrix(1 0 0 1 469.843 1556)">
   <path d="M 20.9473 -39.4531 L 13.916 -39.4531 C 12.0605 -39.4531 11.2793 -38.623 11.2793 -37.1094 L 11.2793 -36.4746 C 11.2793 -34.9121 12.0605 -34.1309 13.916 -34.1309 L 20.9473 -34.1309 C 21.0938 -34.1309 21.1914 -34.1309 21.3379 -34.1309 C 21.9727 -18.457 34.9121 -5.85938 50.8301 -5.85938 C 67.1875 -5.85938 80.3223 -19.0918 80.3223 -35.3516 C 80.3223 -36.1328 80.2734 -36.9629 80.2246 -37.7441 L 80.3711 -37.0117 C 83.3496 -38.7695 87.0117 -39.502 89.8438 -39.502 C 92.7246 -39.502 96.3867 -38.7695 99.3652 -37.0117 L 99.5117 -37.7441 C 99.4629 -36.9629 99.4141 -36.1328 99.4141 -35.3516 C 99.4141 -19.1406 112.549 -5.85938 128.906 -5.85938 C 144.824 -5.85938 157.764 -18.457 158.398 -34.1309 C 158.496 -34.1309 158.643 -34.1309 158.789 -34.1309 L 165.82 -34.1309 C 167.676 -34.1309 168.457 -34.9121 168.457 -36.4746 L 168.457 -37.1094 C 168.457 -38.623 167.676 -39.4531 165.82 -39.4531 L 158.789 -39.4531 C 158.545 -39.4531 158.35 -39.4531 158.154 -39.4043 C 156.152 -53.7598 143.848 -64.8438 128.906 -64.8438 C 114.697 -64.8438 102.93 -54.834 100.049 -41.5527 C 97.0703 -43.3105 93.0664 -43.8965 89.8438 -43.8965 C 86.6699 -43.8965 82.666 -43.3105 79.6875 -41.5527 C 76.8066 -54.834 64.9902 -64.8438 50.8301 -64.8438 C 35.8887 -64.8438 23.584 -53.7598 21.582 -39.4043 C 21.3867 -39.4531 21.1914 -39.4531 20.9473 -39.4531 Z M 50.8301 -8.44727 C 35.9375 -8.44727 23.9258 -20.5078 23.9258 -35.3516 C 23.9258 -50.1953 35.9375 -62.2559 50.8301 -62.2559 C 65.5762 -62.2559 77.6855 -50.1953 77.6855 -35.3516 C 77.6855 -20.5078 65.7715 -8.44727 50.8301 -8.44727 Z M 128.906 -8.44727 C 113.965 -8.44727 102.002 -20.5078 102.002 -35.3516 C 102.002 -50.1953 113.965 -62.2559 128.906 -62.2559 C 143.799 -62.2559 155.811 -50.1953 155.811 -35.3516 C 155.811 -20.5078 143.799 -8.44727 128.906 -8.44727 Z"/>
  </g>
  <g id="Black-M" transform="matrix(1 0 0 1 2841.55 1126)">
   <path d="M 52.4414 0.439453 C 69.3848 0.439453 83.3008 -12.5 85.3027 -28.6621 C 87.5 -29.4434 89.8438 -29.6875 91.8457 -29.6875 C 93.8477 -29.6875 96.1914 -29.4434 98.3887 -28.6621 C 100.342 -12.3047 114.258 0.439453 131.25 0.439453 C 147.852 0.439453 161.523 -11.6699 164.014 -27.4414 L 170.996 -27.4414 C 173.828 -27.4414 174.951 -29.1992 174.951 -31.4941 L 174.951 -35.4492 C 174.951 -37.8418 173.828 -39.4043 170.996 -39.4043 L 163.77 -39.4043 C 160.645 -54.3945 147.266 -65.7227 131.25 -65.7227 C 116.455 -65.7227 103.955 -56.0059 99.707 -42.6758 C 97.2168 -43.6523 94.2871 -44.043 91.8457 -44.043 C 89.4043 -44.043 86.4746 -43.6523 83.9844 -42.6758 C 79.7363 -56.0059 67.2363 -65.7227 52.4414 -65.7227 C 36.8652 -65.7227 23.877 -55.0781 20.2637 -40.7227 L 12.6953 -40.7227 C 9.86328 -40.7227 8.74023 -39.1602 8.74023 -36.8164 L 8.74023 -31.4941 C 8.74023 -29.1992 9.86328 -27.4414 12.6953 -27.4414 L 19.6777 -27.4414 C 22.168 -11.7188 35.7422 0.439453 52.4414 0.439453 Z M 52.4414 -14.5996 C 42.5293 -14.5996 34.4238 -22.6074 34.4238 -32.666 C 34.4238 -42.6758 42.5293 -50.6836 52.4414 -50.6836 C 62.4023 -50.6836 70.5566 -42.6758 70.5566 -32.666 C 70.5566 -22.6074 62.5488 -14.5996 52.4414 -14.5996 Z M 131.25 -14.5996 C 121.143 -14.5996 113.135 -22.6074 113.135 -32.666 C 113.135 -42.6758 121.143 -50.6836 131.25 -50.6836 C 141.211 -50.6836 149.268 -42.6758 149.268 -32.666 C 149.268 -22.6074 141.211 -14.5996 131.25 -14.5996 Z"/>
  </g>
  <g id="Heavy-M" transform="matrix(1 0 0 1 2548.09 1126)">
   <path d="M 50.6348 -1.07422 C 67.0898 -1.07422 80.5664 -13.8184 82.1289 -29.6387 C 84.2773 -30.4199 86.6211 -30.6641 88.5742 -30.6641 C 90.5273 -30.6641 92.8711 -30.4199 95.0195 -29.6387 C 96.6309 -13.6719 110.059 -1.07422 126.562 -1.07422 C 142.578 -1.07422 155.762 -12.8906 158.008 -28.125 L 164.697 -28.125 C 167.383 -28.125 168.457 -29.7852 168.457 -31.9824 L 168.457 -35.4492 C 168.457 -37.6953 167.383 -39.1602 164.697 -39.1602 L 157.715 -39.1602 C 154.736 -53.5645 141.943 -64.4531 126.562 -64.4531 C 112.256 -64.4531 100.195 -54.9805 96.2402 -41.9922 C 93.7988 -42.9688 90.9668 -43.3594 88.5742 -43.3594 C 86.2305 -43.3594 83.3984 -42.9688 80.9082 -41.9922 C 76.9531 -54.9805 64.8926 -64.4531 50.6348 -64.4531 C 35.5957 -64.4531 23.0469 -54.0527 19.7266 -40.1855 L 12.5 -40.1855 C 9.81445 -40.1855 8.74023 -38.7207 8.74023 -36.4746 L 8.74023 -31.9824 C 8.74023 -29.7852 9.81445 -28.125 12.5 -28.125 L 19.1895 -28.125 C 21.4355 -12.8906 34.5215 -1.07422 50.6348 -1.07422 Z M 50.6348 -14.3066 C 40.4297 -14.3066 32.1777 -22.5098 32.1777 -32.7637 C 32.1777 -43.0176 40.4297 -51.2207 50.6348 -51.2207 C 60.791 -51.2207 69.1406 -43.0176 69.1406 -32.7637 C 69.1406 -22.5098 60.9375 -14.3066 50.6348 -14.3066 Z M 126.562 -14.3066 C 116.26 -14.3066 108.057 -22.5098 108.057 -32.7637 C 108.057 -43.0176 116.26 -51.2207 126.562 -51.2207 C 136.719 -51.2207 145.02 -43.0176 145.02 -32.7637 C 145.02 -22.5098 136.719 -14.3066 126.562 -14.3066 Z"/>
  </g>
  <g id="Bold-M" transform="matrix(1 0 0 1 2255.04 1126)">
   <path d="M 48.584 -2.7832 C 64.502 -2.7832 77.4414 -15.332 78.6133 -30.7129 C 80.7129 -31.4941 83.0078 -31.7871 84.9609 -31.7871 C 86.8652 -31.7871 89.1602 -31.4941 91.3086 -30.7129 C 92.4316 -15.1855 105.371 -2.7832 121.338 -2.7832 C 136.67 -2.7832 149.268 -14.209 151.27 -28.9062 L 157.617 -28.9062 C 160.156 -28.9062 161.133 -30.4199 161.133 -32.5195 L 161.133 -35.4004 C 161.133 -37.5488 160.156 -38.916 157.617 -38.916 L 150.928 -38.916 C 148.145 -52.6367 135.938 -63.0371 121.338 -63.0371 C 107.568 -63.0371 95.9961 -53.8086 92.3828 -41.2598 C 89.9902 -42.1875 87.2559 -42.5293 84.9609 -42.5293 C 82.666 -42.5293 79.8828 -42.1875 77.4902 -41.2598 C 73.877 -53.8086 62.3047 -63.0371 48.584 -63.0371 C 34.1797 -63.0371 22.168 -52.9785 19.0918 -39.5996 L 12.2559 -39.5996 C 9.7168 -39.5996 8.74023 -38.1836 8.74023 -36.084 L 8.74023 -32.5195 C 8.74023 -30.4199 9.7168 -28.9062 12.2559 -28.9062 L 18.6035 -28.9062 C 20.6055 -14.2578 33.1543 -2.7832 48.584 -2.7832 Z M 48.584 -13.9648 C 38.1348 -13.9648 29.6387 -22.4121 29.6387 -32.9102 C 29.6387 -43.4082 38.1348 -51.8555 48.584 -51.8555 C 58.9844 -51.8555 67.5293 -43.4082 67.5293 -32.9102 C 67.5293 -22.4121 59.1309 -13.9648 48.584 -13.9648 Z M 121.338 -13.9648 C 110.742 -13.9648 102.344 -22.4121 102.344 -32.9102 C 102.344 -43.4082 110.742 -51.8555 121.338 -51.8555 C 131.787 -51.8555 140.234 -43.4082 140.234 -32.9102 C 140.234 -22.4121 131.787 -13.9648 121.338 -13.9648 Z"/>
  </g>
  <g id="Semibold-M" transform="matrix(1 0 0 1 1960.84 1126)">
   <path d="M 47.168 -3.95508 C 62.6953 -3.95508 75.3418 -16.3574 76.123 -31.4453 C 78.2227 -32.2266 80.5664 -32.5195 82.4219 -32.5195 C 84.3262 -32.5195 86.6211 -32.2266 88.7207 -31.4453 C 89.5508 -16.2109 102.148 -3.95508 117.725 -3.95508 C 132.568 -3.95508 144.824 -15.1367 146.582 -29.4434 L 152.734 -29.4434 C 155.176 -29.4434 156.104 -30.8594 156.104 -32.8613 L 156.104 -35.4004 C 156.104 -37.4023 155.176 -38.7695 152.734 -38.7695 L 146.24 -38.7695 C 143.555 -52.002 131.836 -62.0605 117.725 -62.0605 C 104.297 -62.0605 93.1152 -52.9785 89.6973 -40.7227 C 87.4023 -41.6504 84.668 -41.9922 82.4219 -41.9922 C 80.1758 -41.9922 77.4902 -41.6504 75.1465 -40.7227 C 71.7285 -52.9785 60.498 -62.0605 47.168 -62.0605 C 33.2031 -62.0605 21.5332 -52.1973 18.7012 -39.1602 L 12.1094 -39.1602 C 9.66797 -39.1602 8.74023 -37.8418 8.74023 -35.791 L 8.74023 -32.8613 C 8.74023 -30.8594 9.66797 -29.4434 12.1094 -29.4434 L 18.2617 -29.4434 C 20.0195 -15.1367 32.2266 -3.95508 47.168 -3.95508 Z M 47.168 -13.7695 C 36.5234 -13.7695 27.8809 -22.3633 27.8809 -33.0078 C 27.8809 -43.7012 36.5234 -52.2461 47.168 -52.2461 C 57.7637 -52.2461 66.4062 -43.7012 66.4062 -33.0078 C 66.4062 -22.3633 57.8613 -13.7695 47.168 -13.7695 Z M 117.725 -13.7695 C 106.982 -13.7695 98.4375 -22.3633 98.4375 -33.0078 C 98.4375 -43.7012 106.982 -52.2461 117.725 -52.2461 C 128.32 -52.2461 136.963 -43.7012 136.963 -33.0078 C 136.963 -22.3633 128.32 -13.7695 117.725 -13.7695 Z"/>
  </g>
  <g id="Medium-M" transform="matrix(1 0 0 1 1666.04 1126)">
   <path d="M 46.0938 -4.88281 C 61.3281 -4.88281 73.7305 -17.1387 74.2676 -32.0312 C 76.3672 -32.8125 78.6621 -33.1055 80.5176 -33.1055 C 82.4219 -33.1055 84.668 -32.8125 86.7676 -32.0312 C 87.3535 -16.9922 99.707 -4.88281 114.99 -4.88281 C 129.492 -4.88281 141.455 -15.8203 143.066 -29.834 L 149.072 -29.834 C 151.416 -29.834 152.295 -31.2012 152.295 -33.1543 L 152.295 -35.3516 C 152.295 -37.3535 151.416 -38.623 149.072 -38.623 L 142.725 -38.623 C 140.137 -51.5137 128.711 -61.3281 114.99 -61.3281 C 101.855 -61.3281 90.918 -52.3926 87.6953 -40.3809 C 85.4004 -41.2598 82.7148 -41.6016 80.5176 -41.6016 C 78.3203 -41.6016 75.6348 -41.2598 73.3398 -40.3809 C 70.1172 -52.3926 59.1309 -61.3281 46.0938 -61.3281 C 32.4219 -61.3281 21.0449 -51.6113 18.4082 -38.8672 L 12.0117 -38.8672 C 9.66797 -38.8672 8.74023 -37.5977 8.74023 -35.5957 L 8.74023 -33.1543 C 8.74023 -31.2012 9.66797 -29.834 12.0117 -29.834 L 17.9688 -29.834 C 19.5801 -15.8203 31.543 -4.88281 46.0938 -4.88281 Z M 46.0938 -13.5742 C 35.3027 -13.5742 26.5625 -22.2656 26.5625 -33.1055 C 26.5625 -43.8965 35.3027 -52.5879 46.0938 -52.5879 C 56.8359 -52.5879 65.5762 -43.8965 65.5762 -33.1055 C 65.5762 -22.2656 56.9336 -13.5742 46.0938 -13.5742 Z M 114.99 -13.5742 C 104.102 -13.5742 95.459 -22.2656 95.459 -33.1055 C 95.459 -43.8965 104.102 -52.5879 114.99 -52.5879 C 125.732 -52.5879 134.473 -43.8965 134.473 -33.1055 C 134.473 -22.2656 125.732 -13.5742 114.99 -13.5742 Z"/>
  </g>
  <g id="Regular-M" transform="matrix(1 0 0 1 1371.79 1126)">
   <path d="M 44.6777 -6.05469 C 59.5703 -6.05469 71.582 -18.1641 71.8262 -32.7637 C 73.9258 -33.5449 76.1719 -33.8379 78.0273 -33.8379 C 79.8828 -33.8379 82.1777 -33.5449 84.2773 -32.7637 C 84.4727 -18.0176 96.4844 -6.05469 111.426 -6.05469 C 125.488 -6.05469 137.061 -16.748 138.477 -30.3711 L 144.238 -30.3711 C 146.484 -30.3711 147.363 -31.6895 147.363 -33.4961 L 147.363 -35.3516 C 147.363 -37.207 146.484 -38.4766 144.238 -38.4766 L 138.086 -38.4766 C 135.645 -50.8789 124.609 -60.3516 111.426 -60.3516 C 98.6816 -60.3516 88.0371 -51.6113 85.1074 -39.8438 C 82.8125 -40.7227 80.1758 -41.0156 78.0273 -41.0156 C 75.8789 -41.0156 73.2422 -40.7227 70.9961 -39.8438 C 68.0176 -51.6113 57.3242 -60.3516 44.6777 -60.3516 C 31.4453 -60.3516 20.459 -50.8789 17.9688 -38.4766 L 11.8164 -38.4766 C 9.61914 -38.4766 8.74023 -37.207 8.74023 -35.3516 L 8.74023 -33.4961 C 8.74023 -31.6895 9.61914 -30.3711 11.8164 -30.3711 L 17.627 -30.3711 C 19.043 -16.748 30.6152 -6.05469 44.6777 -6.05469 Z M 44.6777 -13.3789 C 33.7402 -13.3789 24.8535 -22.2168 24.8535 -33.2031 C 24.8535 -44.1406 33.7402 -53.0273 44.6777 -53.0273 C 55.5664 -53.0273 64.502 -44.1406 64.502 -33.2031 C 64.502 -22.2168 55.7129 -13.3789 44.6777 -13.3789 Z M 111.426 -13.3789 C 100.391 -13.3789 91.6016 -22.2168 91.6016 -33.2031 C 91.6016 -44.1406 100.391 -53.0273 111.426 -53.0273 C 122.363 -53.0273 131.25 -44.1406 131.25 -33.2031 C 131.25 -22.2168 122.363 -13.3789 111.426 -13.3789 Z"/>
  </g>
  <g id="Light-M" transform="matrix(1 0 0 1 1077.69 1126)">
   <path d="M 43.0176 -8.00781 C 57.373 -8.00781 68.8477 -19.7266 68.8477 -33.8379 L 68.8477 -33.9844 C 71.0449 -34.9121 73.4863 -35.3027 75.4395 -35.3027 C 77.3926 -35.3027 79.834 -34.9121 82.0312 -33.9844 L 82.0312 -33.8379 C 82.0312 -19.6289 93.5059 -8.00781 107.861 -8.00781 C 121.387 -8.00781 132.471 -18.457 133.594 -31.5918 L 139.355 -31.5918 C 141.357 -31.5918 142.139 -32.7148 142.139 -34.3262 L 142.139 -35.7422 C 142.139 -37.4512 141.357 -38.4766 139.355 -38.4766 L 133.301 -38.4766 C 131.104 -50.4883 120.557 -59.668 107.861 -59.668 C 95.6543 -59.668 85.498 -51.2207 82.7637 -39.9902 C 80.4688 -40.9668 77.6855 -41.3086 75.4395 -41.3086 C 73.1934 -41.3086 70.4102 -40.9668 68.1152 -39.9902 C 65.3809 -51.2207 55.1758 -59.668 43.0176 -59.668 C 30.3223 -59.668 19.7754 -50.4883 17.5781 -38.4766 L 11.5234 -38.4766 C 9.52148 -38.4766 8.74023 -37.4512 8.74023 -35.7422 L 8.74023 -34.3262 C 8.74023 -32.7148 9.52148 -31.5918 11.5234 -31.5918 L 17.2852 -31.5918 C 18.4082 -18.457 29.4922 -8.00781 43.0176 -8.00781 Z M 43.0176 -13.7207 C 31.9336 -13.7207 22.9004 -22.7051 22.9004 -33.8379 C 22.9004 -44.9707 31.9336 -54.0039 43.0176 -54.0039 C 54.1016 -54.0039 63.1836 -44.9707 63.1836 -33.8379 C 63.1836 -22.7051 54.248 -13.7207 43.0176 -13.7207 Z M 107.861 -13.7207 C 96.6309 -13.7207 87.6953 -22.7051 87.6953 -33.8379 C 87.6953 -44.9707 96.6309 -54.0039 107.861 -54.0039 C 118.945 -54.0039 127.979 -44.9707 127.979 -33.8379 C 127.979 -22.7051 118.945 -13.7207 107.861 -13.7207 Z"/>
  </g>
  <g id="Thin-M" transform="matrix(1 0 0 1 784.425 1126)">
   <path d="M 40.8691 -10.6445 C 54.1992 -10.6445 64.9414 -21.5332 64.9414 -34.7168 C 64.9414 -35.0098 64.9414 -35.3027 64.9414 -35.5469 C 67.1875 -36.7188 69.873 -37.207 72.0215 -37.207 C 74.1211 -37.207 76.8066 -36.7188 79.1016 -35.5469 C 79.0527 -35.3027 79.0527 -35.0098 79.0527 -34.7168 C 79.0527 -21.4844 89.7949 -10.6445 103.125 -10.6445 C 115.918 -10.6445 126.416 -20.7031 127.148 -33.252 L 132.91 -33.252 C 134.57 -33.252 135.254 -34.082 135.254 -35.4492 L 135.254 -36.3281 C 135.254 -37.6953 134.57 -38.4766 132.91 -38.4766 L 126.904 -38.4766 C 125.098 -49.9512 115.137 -58.7891 103.125 -58.7891 C 91.6504 -58.7891 82.0801 -50.7812 79.6875 -40.0879 C 77.3438 -41.2598 74.3652 -41.6992 72.0215 -41.6992 C 69.6289 -41.6992 66.6504 -41.2598 64.3066 -40.0879 C 61.8652 -50.7812 52.2949 -58.7891 40.8691 -58.7891 C 28.8574 -58.7891 18.8965 -49.9512 17.0898 -38.4766 L 11.084 -38.4766 C 9.42383 -38.4766 8.74023 -37.6953 8.74023 -36.3281 L 8.74023 -35.4492 C 8.74023 -34.082 9.42383 -33.252 11.084 -33.252 L 16.8457 -33.252 C 17.5781 -20.7031 28.0762 -10.6445 40.8691 -10.6445 Z M 40.8691 -14.1602 C 29.4922 -14.1602 20.3125 -23.3398 20.3125 -34.7168 C 20.3125 -46.0938 29.4922 -55.2734 40.8691 -55.2734 C 52.1484 -55.2734 61.4258 -46.0938 61.4258 -34.7168 C 61.4258 -23.3398 52.2949 -14.1602 40.8691 -14.1602 Z M 103.125 -14.1602 C 91.6992 -14.1602 82.5684 -23.3398 82.5684 -34.7168 C 82.5684 -46.0938 91.6992 -55.2734 103.125 -55.2734 C 114.502 -55.2734 123.682 -46.0938 123.682 -34.7168 C 123.682 -23.3398 114.502 -14.1602 103.125 -14.1602 Z"/>
  </g>
  <g id="Ultralight-M" transform="matrix(1 0 0 1 489.472 1126)">
   <path d="M 39.7461 -12.0117 C 52.5879 -12.0117 62.9395 -22.4121 62.9395 -35.1562 C 62.9395 -35.5469 62.8906 -35.9375 62.8906 -36.3281 C 65.1367 -37.6465 68.0176 -38.1836 70.2148 -38.1836 C 72.4609 -38.1836 75.293 -37.6465 77.5879 -36.3281 C 77.5391 -35.9375 77.5391 -35.5469 77.5391 -35.1562 C 77.5391 -22.4121 87.8418 -12.0117 100.732 -12.0117 C 113.135 -12.0117 123.291 -21.8262 123.877 -34.082 L 129.639 -34.082 C 131.104 -34.082 131.738 -34.7656 131.738 -35.9863 L 131.738 -36.5723 C 131.738 -37.8418 131.104 -38.5254 129.639 -38.5254 L 123.926 -38.5254 L 123.633 -38.4766 C 122.021 -49.6582 112.402 -58.3496 100.732 -58.3496 C 89.5996 -58.3496 80.3223 -50.4883 78.0762 -40.1367 C 75.7324 -41.4062 72.6562 -41.8945 70.2148 -41.8945 C 67.7734 -41.8945 64.6973 -41.4062 62.4023 -40.1367 C 60.1074 -50.4883 50.8301 -58.3496 39.7461 -58.3496 C 28.0762 -58.3496 18.4082 -49.6582 16.7969 -38.4766 C 16.6992 -38.4766 16.6504 -38.5254 16.5039 -38.5254 L 10.8398 -38.5254 C 9.375 -38.5254 8.74023 -37.8418 8.74023 -36.5723 L 8.74023 -35.9863 C 8.74023 -34.7656 9.375 -34.082 10.8398 -34.082 L 16.6016 -34.082 C 17.1875 -21.8262 27.2949 -12.0117 39.7461 -12.0117 Z M 39.7461 -14.4043 C 28.2715 -14.4043 18.9941 -23.6816 18.9941 -35.1562 C 18.9941 -46.6309 28.2715 -55.957 39.7461 -55.957 C 51.1719 -55.957 60.498 -46.6309 60.498 -35.1562 C 60.498 -23.6816 51.2695 -14.4043 39.7461 -14.4043 Z M 100.732 -14.4043 C 89.1602 -14.4043 79.9316 -23.6816 79.9316 -35.1562 C 79.9316 -46.6309 89.1602 -55.957 100.732 -55.957 C 112.207 -55.957 121.484 -46.6309 121.484 -35.1562 C 121.484 -23.6816 112.207 -14.4043 100.732 -14.4043 Z"/>
  </g>
  <g id="Black-S" transform="matrix(1 0 0 1 2861.67 696)">
   <path d="M 40.9668 -7.37305 C 54.1992 -7.37305 65.0879 -17.5293 66.6016 -30.127 C 68.3105 -30.7617 70.166 -30.957 71.7285 -30.957 C 73.291 -30.957 75.1465 -30.7617 76.8555 -30.127 C 78.3691 -17.334 89.209 -7.37305 102.49 -7.37305 C 115.43 -7.37305 126.123 -16.8457 128.076 -29.1504 L 133.545 -29.1504 C 135.742 -29.1504 136.621 -30.5176 136.621 -32.3242 L 136.621 -35.4004 C 136.621 -37.2559 135.742 -38.4766 133.545 -38.4766 L 127.881 -38.4766 C 125.439 -50.1953 115.039 -59.0332 102.49 -59.0332 C 90.918 -59.0332 81.1523 -51.416 77.8809 -41.0156 C 75.9277 -41.7969 73.6328 -42.0898 71.7285 -42.0898 C 69.8242 -42.0898 67.5293 -41.7969 65.5762 -41.0156 C 62.2559 -51.416 52.4902 -59.0332 40.9668 -59.0332 C 28.8086 -59.0332 18.6523 -50.6836 15.8203 -39.502 L 9.91211 -39.502 C 7.71484 -39.502 6.83594 -38.2812 6.83594 -36.4258 L 6.83594 -32.3242 C 6.83594 -30.5176 7.71484 -29.1504 9.91211 -29.1504 L 15.3809 -29.1504 C 17.2852 -16.8945 27.9297 -7.37305 40.9668 -7.37305 Z M 40.9668 -19.043 C 33.1543 -19.043 26.8066 -25.3418 26.8066 -33.2031 C 26.8066 -41.0645 33.1543 -47.3633 40.9668 -47.3633 C 48.7793 -47.3633 55.1758 -41.0645 55.1758 -33.2031 C 55.1758 -25.3418 48.877 -19.043 40.9668 -19.043 Z M 102.49 -19.043 C 94.5801 -19.043 88.2812 -25.3418 88.2812 -33.2031 C 88.2812 -41.0645 94.5801 -47.3633 102.49 -47.3633 C 110.303 -47.3633 116.65 -41.0645 116.65 -33.2031 C 116.65 -25.3418 110.303 -19.043 102.49 -19.043 Z"/>
  </g>
  <g id="Heavy-S" transform="matrix(1 0 0 1 2567.16 696)">
   <path d="M 39.7461 -8.30078 C 52.6855 -8.30078 63.2324 -18.3594 64.502 -30.7129 C 66.2109 -31.3477 68.0176 -31.543 69.5312 -31.543 C 71.0449 -31.543 72.8516 -31.3477 74.5117 -30.7129 C 75.7812 -18.2129 86.377 -8.30078 99.3164 -8.30078 C 111.865 -8.30078 122.217 -17.5781 124.023 -29.541 L 129.248 -29.541 C 131.348 -29.541 132.227 -30.8594 132.227 -32.6172 L 132.227 -35.3516 C 132.227 -37.1094 131.348 -38.2812 129.248 -38.2812 L 123.779 -38.2812 C 121.436 -49.6094 111.377 -58.1543 99.3164 -58.1543 C 88.0371 -58.1543 78.5645 -50.6836 75.4883 -40.4785 C 73.584 -41.2109 71.3867 -41.5039 69.5312 -41.5039 C 67.6758 -41.5039 65.4785 -41.2109 63.5742 -40.4785 C 60.4492 -50.6836 50.9766 -58.1543 39.7461 -58.1543 C 27.9297 -58.1543 18.1152 -50 15.4297 -39.1113 L 9.81445 -39.1113 C 7.66602 -39.1113 6.83594 -37.8906 6.83594 -36.1328 L 6.83594 -32.6172 C 6.83594 -30.8594 7.66602 -29.541 9.81445 -29.541 L 15.0391 -29.541 C 16.7969 -17.5781 27.0996 -8.30078 39.7461 -8.30078 Z M 39.7461 -18.7988 C 31.7871 -18.7988 25.293 -25.1953 25.293 -33.2031 C 25.293 -41.2598 31.7871 -47.6562 39.7461 -47.6562 C 47.7051 -47.6562 54.248 -41.2598 54.248 -33.2031 C 54.248 -25.1953 47.8027 -18.7988 39.7461 -18.7988 Z M 99.3164 -18.7988 C 91.2598 -18.7988 84.8145 -25.1953 84.8145 -33.2031 C 84.8145 -41.2598 91.2598 -47.6562 99.3164 -47.6562 C 107.275 -47.6562 113.77 -41.2598 113.77 -33.2031 C 113.77 -25.1953 107.275 -18.7988 99.3164 -18.7988 Z"/>
  </g>
  <g id="Bold-S" transform="matrix(1 0 0 1 2272.91 696)">
   <path d="M 38.3789 -9.375 C 50.9766 -9.375 61.2305 -19.2871 62.1582 -31.3965 C 63.8184 -31.9824 65.5762 -32.1777 67.041 -32.1777 C 68.5059 -32.1777 70.3125 -31.9824 71.9238 -31.3965 C 72.9004 -19.1406 83.1543 -9.375 95.752 -9.375 C 107.861 -9.375 117.871 -18.4082 119.482 -29.9805 L 124.463 -29.9805 C 126.465 -29.9805 127.295 -31.25 127.295 -32.9102 L 127.295 -35.2539 C 127.295 -36.9629 126.465 -38.1348 124.463 -38.1348 L 119.189 -38.1348 C 116.943 -48.9258 107.324 -57.1289 95.752 -57.1289 C 84.8145 -57.1289 75.6836 -49.8047 72.8027 -39.8926 C 70.9473 -40.5762 68.8477 -40.8691 67.041 -40.8691 C 65.2832 -40.8691 63.1348 -40.5762 61.2793 -39.8926 C 58.3984 -49.8047 49.2188 -57.1289 38.3789 -57.1289 C 27.002 -57.1289 17.4805 -49.1699 15.0391 -38.623 L 9.66797 -38.623 C 7.61719 -38.623 6.83594 -37.5 6.83594 -35.791 L 6.83594 -32.9102 C 6.83594 -31.25 7.61719 -29.9805 9.66797 -29.9805 L 14.6484 -29.9805 C 16.2598 -18.4082 26.2207 -9.375 38.3789 -9.375 Z M 38.3789 -18.5059 C 30.2246 -18.5059 23.584 -25.0488 23.584 -33.252 C 23.584 -41.4551 30.2246 -48.0469 38.3789 -48.0469 C 46.5332 -48.0469 53.1738 -41.4551 53.1738 -33.252 C 53.1738 -25.0488 46.6309 -18.5059 38.3789 -18.5059 Z M 95.752 -18.5059 C 87.5 -18.5059 80.957 -25.0488 80.957 -33.252 C 80.957 -41.4551 87.5 -48.0469 95.752 -48.0469 C 103.906 -48.0469 110.498 -41.4551 110.498 -33.252 C 110.498 -25.0488 103.906 -18.5059 95.752 -18.5059 Z"/>
  </g>
  <g id="Semibold-S" transform="matrix(1 0 0 1 1977.91 696)">
   <path d="M 37.4512 -10.1074 C 49.8047 -10.1074 59.8145 -19.9219 60.5469 -31.8848 C 62.1582 -32.4219 63.916 -32.666 65.3809 -32.666 C 66.7969 -32.666 68.5547 -32.4219 70.166 -31.8848 C 70.8984 -19.7754 80.9082 -10.1074 93.3105 -10.1074 C 105.127 -10.1074 114.844 -18.9453 116.309 -30.2734 L 121.143 -30.2734 C 123.096 -30.2734 123.877 -31.4941 123.877 -33.1055 L 123.877 -35.2051 C 123.877 -36.8652 123.096 -37.9883 121.143 -37.9883 L 116.016 -37.9883 C 113.867 -48.4863 104.492 -56.4453 93.3105 -56.4453 C 82.6172 -56.4453 73.6816 -49.2188 70.9961 -39.502 C 69.1895 -40.1367 67.0898 -40.4297 65.3809 -40.4297 C 63.623 -40.4297 61.5723 -40.1367 59.7168 -39.502 C 57.0312 -49.2188 48.0469 -56.4453 37.4512 -56.4453 C 26.3184 -56.4453 17.0898 -48.6328 14.7461 -38.2812 L 9.57031 -38.2812 C 7.61719 -38.2812 6.83594 -37.207 6.83594 -35.5469 L 6.83594 -33.1055 C 6.83594 -31.4941 7.61719 -30.2734 9.57031 -30.2734 L 14.4043 -30.2734 C 15.8691 -18.9453 25.5859 -10.1074 37.4512 -10.1074 Z M 37.4512 -18.2617 C 29.1504 -18.2617 22.4609 -24.9512 22.4609 -33.252 C 22.4609 -41.6016 29.1504 -48.2422 37.4512 -48.2422 C 45.7031 -48.2422 52.4414 -41.6016 52.4414 -33.252 C 52.4414 -24.9512 45.8008 -18.2617 37.4512 -18.2617 Z M 93.3105 -18.2617 C 84.9121 -18.2617 78.2715 -24.9512 78.2715 -33.252 C 78.2715 -41.6016 84.9121 -48.2422 93.3105 -48.2422 C 101.562 -48.2422 108.301 -41.6016 108.301 -33.252 C 108.301 -24.9512 101.562 -18.2617 93.3105 -18.2617 Z"/>
  </g>
  <g id="Medium-S" transform="matrix(1 0 0 1 1682.49 696)">
   <path d="M 36.7188 -10.6445 C 48.877 -10.6445 58.7402 -20.4102 59.3262 -32.2266 C 60.9375 -32.7637 62.6465 -33.0078 64.0625 -33.0078 C 65.4785 -33.0078 67.2363 -32.7637 68.8477 -32.2266 C 69.3848 -20.2637 79.248 -10.6445 91.4062 -10.6445 C 103.027 -10.6445 112.549 -19.3848 113.916 -30.5176 L 118.652 -30.5176 C 120.557 -30.5176 121.289 -31.6895 121.289 -33.252 L 121.289 -35.1562 C 121.289 -36.8164 120.557 -37.8906 118.652 -37.8906 L 113.623 -37.8906 C 111.523 -48.1445 102.393 -55.9082 91.4062 -55.9082 C 80.957 -55.9082 72.168 -48.7793 69.5801 -39.209 C 67.8223 -39.8438 65.7715 -40.0879 64.0625 -40.0879 C 62.3535 -40.0879 60.3516 -39.8438 58.5449 -39.1602 C 55.957 -48.7793 47.168 -55.9082 36.7188 -55.9082 C 25.8301 -55.9082 16.748 -48.2422 14.5508 -38.0859 L 9.52148 -38.0859 C 7.56836 -38.0859 6.83594 -36.9629 6.83594 -35.3516 L 6.83594 -33.252 C 6.83594 -31.6895 7.56836 -30.5176 9.52148 -30.5176 L 14.209 -30.5176 C 15.5762 -19.3848 25.0977 -10.6445 36.7188 -10.6445 Z M 36.7188 -18.1152 C 28.3691 -18.1152 21.5332 -24.9023 21.5332 -33.3008 C 21.5332 -41.6992 28.3691 -48.4375 36.7188 -48.4375 C 45.0684 -48.4375 51.9043 -41.6992 51.9043 -33.3008 C 51.9043 -24.9023 45.166 -18.1152 36.7188 -18.1152 Z M 91.4062 -18.1152 C 82.959 -18.1152 76.2695 -24.9023 76.2695 -33.3008 C 76.2695 -41.6992 82.959 -48.4375 91.4062 -48.4375 C 99.8047 -48.4375 106.592 -41.6992 106.592 -33.3008 C 106.592 -24.9023 99.8047 -18.1152 91.4062 -18.1152 Z"/>
  </g>
  <g id="Regular-S" transform="matrix(1 0 0 1 1387.47 696)">
   <path d="M 35.791 -11.377 C 47.7051 -11.377 57.3242 -21.0449 57.666 -32.7148 C 59.2773 -33.2031 60.9863 -33.4473 62.4023 -33.4473 C 63.7695 -33.4473 65.4785 -33.2031 67.0898 -32.7148 C 67.4316 -20.8984 77.0508 -11.377 89.0137 -11.377 C 100.293 -11.377 109.57 -19.9219 110.84 -30.8105 L 115.381 -30.8105 C 117.236 -30.8105 117.92 -31.9336 117.92 -33.4961 L 117.92 -35.1074 C 117.92 -36.7188 117.236 -37.7441 115.381 -37.7441 L 110.498 -37.7441 C 108.447 -47.7051 99.6094 -55.2246 89.0137 -55.2246 C 78.7598 -55.2246 70.2148 -48.1934 67.7734 -38.7695 C 66.0156 -39.4043 64.0137 -39.6484 62.4023 -39.6484 C 60.7422 -39.6484 58.7402 -39.4043 56.9824 -38.7695 C 54.541 -48.1934 45.9961 -55.2246 35.791 -55.2246 C 25.1953 -55.2246 16.3574 -47.7051 14.2578 -37.7441 L 9.42383 -37.7441 C 7.56836 -37.7441 6.83594 -36.7188 6.83594 -35.1074 L 6.83594 -33.4961 C 6.83594 -31.9336 7.56836 -30.8105 9.42383 -30.8105 L 13.9648 -30.8105 C 15.2344 -19.9219 24.5117 -11.377 35.791 -11.377 Z M 35.791 -17.9199 C 27.2949 -17.9199 20.4102 -24.8047 20.4102 -33.3008 C 20.4102 -41.8457 27.2949 -48.6816 35.791 -48.6816 C 44.2383 -48.6816 51.1719 -41.8457 51.1719 -33.3008 C 51.1719 -24.8047 44.3359 -17.9199 35.791 -17.9199 Z M 89.0137 -17.9199 C 80.4199 -17.9199 73.6328 -24.8047 73.6328 -33.3008 C 73.6328 -41.8457 80.4199 -48.6816 89.0137 -48.6816 C 97.4609 -48.6816 104.395 -41.8457 104.395 -33.3008 C 104.395 -24.8047 97.4609 -17.9199 89.0137 -17.9199 Z"/>
  </g>
  <g id="Light-S" transform="matrix(1 0 0 1 1093.05 696)">
   <path d="M 34.3262 -13.1348 C 45.8008 -13.1348 54.9805 -22.5098 55.0781 -33.7891 C 56.7383 -34.4727 58.5938 -34.7168 60.1074 -34.7168 C 61.5723 -34.7168 63.4277 -34.4727 65.0879 -33.7891 C 65.0879 -22.5098 74.3652 -13.1348 85.8398 -13.1348 C 96.6309 -13.1348 105.518 -21.4355 106.543 -31.8848 L 111.035 -31.8848 C 112.695 -31.8848 113.33 -32.8613 113.33 -34.2285 L 113.33 -35.498 C 113.33 -36.8652 112.695 -37.7441 111.035 -37.7441 L 106.25 -37.7441 C 104.443 -47.3145 95.9961 -54.6387 85.8398 -54.6387 C 76.0742 -54.6387 67.9688 -47.9004 65.7227 -38.916 C 63.916 -39.5996 61.8164 -39.8926 60.1074 -39.8926 C 58.3496 -39.8926 56.25 -39.5996 54.4434 -38.916 C 52.1973 -47.9004 44.043 -54.6387 34.3262 -54.6387 C 24.1699 -54.6387 15.7227 -47.3145 13.916 -37.7441 L 9.13086 -37.7441 C 7.4707 -37.7441 6.83594 -36.8652 6.83594 -35.498 L 6.83594 -34.2285 C 6.83594 -32.8613 7.4707 -31.8848 9.13086 -31.8848 L 13.6719 -31.8848 C 14.6484 -21.4355 23.5352 -13.1348 34.3262 -13.1348 Z M 34.3262 -18.2129 C 25.6836 -18.2129 18.6523 -25.2441 18.6523 -33.8867 C 18.6523 -42.5781 25.6836 -49.5605 34.3262 -49.5605 C 42.9688 -49.5605 50 -42.5781 50 -33.8867 C 50 -25.2441 43.0664 -18.2129 34.3262 -18.2129 Z M 85.8398 -18.2129 C 77.1484 -18.2129 70.166 -25.2441 70.166 -33.8867 C 70.166 -42.5781 77.1484 -49.5605 85.8398 -49.5605 C 94.4824 -49.5605 101.514 -42.5781 101.514 -33.8867 C 101.514 -25.2441 94.4824 -18.2129 85.8398 -18.2129 Z"/>
  </g>
  <g id="Thin-S" transform="matrix(1 0 0 1 799.367 696)">
   <path d="M 32.4219 -15.4785 C 43.0664 -15.4785 51.6113 -24.1699 51.6113 -34.668 C 51.6113 -34.8633 51.6113 -35.0098 51.6113 -35.2051 C 53.3691 -36.084 55.4199 -36.4258 57.0312 -36.4258 C 58.6914 -36.4258 60.7422 -36.084 62.5 -35.2051 C 62.5 -35.0586 62.5 -34.8633 62.5 -34.668 C 62.5 -24.1211 71.0449 -15.4785 81.6895 -15.4785 C 91.8457 -15.4785 100.146 -23.3887 100.83 -33.3496 L 105.371 -33.3496 C 106.689 -33.3496 107.275 -34.0332 107.275 -35.1562 L 107.275 -35.9863 C 107.275 -37.1094 106.689 -37.793 105.371 -37.793 L 100.635 -37.793 C 99.1211 -46.875 91.2109 -53.8574 81.6895 -53.8574 C 72.5586 -53.8574 64.9414 -47.5098 62.9883 -39.0137 C 61.1816 -39.8926 58.8867 -40.2344 57.0312 -40.2344 C 55.2246 -40.2344 52.9297 -39.8926 51.123 -39.0137 C 49.1211 -47.5098 41.5039 -53.8574 32.4219 -53.8574 C 22.8516 -53.8574 14.9414 -46.875 13.4766 -37.793 L 8.74023 -37.793 C 7.37305 -37.793 6.83594 -37.1094 6.83594 -35.9863 L 6.83594 -35.1562 C 6.83594 -34.0332 7.37305 -33.3496 8.74023 -33.3496 L 13.2324 -33.3496 C 13.916 -23.4375 22.2656 -15.4785 32.4219 -15.4785 Z M 32.4219 -18.6523 C 23.584 -18.6523 16.4062 -25.7812 16.4062 -34.668 C 16.4062 -43.5059 23.584 -50.6836 32.4219 -50.6836 C 41.2109 -50.6836 48.4375 -43.5059 48.4375 -34.668 C 48.4375 -25.7812 41.3086 -18.6523 32.4219 -18.6523 Z M 81.6895 -18.6523 C 72.7539 -18.6523 65.6738 -25.7812 65.6738 -34.668 C 65.6738 -43.5059 72.7539 -50.6836 81.6895 -50.6836 C 90.5273 -50.6836 97.7051 -43.5059 97.7051 -34.668 C 97.7051 -25.7812 90.5273 -18.6523 81.6895 -18.6523 Z"/>
  </g>
  <g id="Ultralight-S" transform="matrix(1 0 0 1 504.218 696)">
   <path d="M 31.4453 -16.6504 C 41.6504 -16.6504 49.8047 -24.9512 49.8047 -35.0586 C 49.8047 -35.3516 49.8047 -35.5957 49.8047 -35.8887 C 51.4648 -36.8652 53.7109 -37.3047 55.4688 -37.3047 C 57.1777 -37.3047 59.375 -36.8652 61.1816 -35.8887 C 61.1328 -35.5957 61.1328 -35.3516 61.1328 -35.0586 C 61.1328 -24.9512 69.3359 -16.6504 79.541 -16.6504 C 89.4043 -16.6504 97.4121 -24.4141 97.9004 -34.082 L 102.441 -34.082 C 103.613 -34.082 104.15 -34.668 104.15 -35.6934 L 104.15 -36.2305 C 104.15 -37.207 103.613 -37.793 102.441 -37.793 L 97.7539 -37.793 C 96.4355 -46.6309 88.7695 -53.4668 79.541 -53.4668 C 70.7031 -53.4668 63.4277 -47.2656 61.5723 -39.0625 C 59.7656 -40.0391 57.373 -40.3809 55.4688 -40.3809 C 53.6133 -40.3809 51.2207 -40.0391 49.3652 -39.0625 C 47.5586 -47.2656 40.1855 -53.4668 31.4453 -53.4668 C 22.2168 -53.4668 14.5508 -46.6309 13.2324 -37.793 L 8.54492 -37.793 C 7.32422 -37.793 6.83594 -37.207 6.83594 -36.2305 L 6.83594 -35.6934 C 6.83594 -34.668 7.32422 -34.082 8.54492 -34.082 L 13.0371 -34.082 C 13.5742 -24.4141 21.582 -16.6504 31.4453 -16.6504 Z M 31.4453 -18.8477 C 22.4609 -18.8477 15.2344 -26.123 15.2344 -35.0586 C 15.2344 -44.043 22.4609 -51.2695 31.4453 -51.2695 C 40.332 -51.2695 47.6562 -44.043 47.6562 -35.0586 C 47.6562 -26.123 40.4297 -18.8477 31.4453 -18.8477 Z M 79.541 -18.8477 C 70.5566 -18.8477 63.3301 -26.123 63.3301 -35.0586 C 63.3301 -44.043 70.5566 -51.2695 79.541 -51.2695 C 88.5254 -51.2695 95.752 -44.043 95.752 -35.0586 C 95.752 -26.123 88.5254 -18.8477 79.541 -18.8477 Z"/>
  </g>
 </g>
</svg>
